<svg id="Layer_1" xmlns="http://www.w3.org/2000/svg" viewBox="0 0 161.04 230.66"><defs><style>.cls-1,.cls-2{fill:#ff9d68;}.cls-3{fill:none;}.cls-3,.cls-2{stroke:#aa3c35;stroke-linecap:round;stroke-linejoin:round;stroke-width:7px;}.cls-4{fill:#aa3c35;}</style></defs><path class="cls-1" d="M47.27,227.39c-2.55,0-5.19-.38-7.87-1.14l-1.85-.52c-9.76-2.76-16.02-9.32-16.94-17.47-1.5-1.08-2.87-2.15-3.96-3.12-4.23-3.62-6.17-9.25-5.06-14.71,2.72-13.41,1.85-19.37,1.33-20.39-4.74-8.49-2.31-18.47-.27-23.99.26-1.84.35-4.46.47-7.46.24-6.56.54-14.72,2.85-22.64.21-1.24-1.73-5.6-3.15-8.78-4.62-10.37-11.59-26.03-5.24-48.47C14.29,33.16,31.52,15.53,56.08,9.16c6.2-1.61,12.77-2.43,19.52-2.43,23.37,0,46.45,9.52,61.74,25.45,17.57,18.31,22.99,42.37,15.28,67.75-6.31,22.28-20.46,31.96-29.82,38.37-2.89,1.97-6.84,4.68-7.31,5.91-2.61,9.22-8.91,20.29-12.6,26.31-.27.73-.55,1.79-.83,2.82-1.32,4.9-3.54,13.1-12.04,18.28-.08.05-.17.1-.26.15-.99.61-4.85,5.22-9.57,18.07-1.94,5.28-6.6,9.07-12.16,9.89-1.67.25-3.38.43-5.08.56-3.61,4.54-9.17,7.09-15.67,7.09,0,0,0,0,0,0Z"/><path class="cls-1" d="M75.6,11.73c21.44,0,43.59,8.76,58.14,23.92,16.26,16.95,21.27,39.26,14.1,62.84-5.84,20.63-18.57,29.34-27.86,35.7-4.74,3.25-8.49,5.81-9.29,8.65-2.59,9.14-9.35,20.69-12.29,25.46-.43,1.02-.79,2.36-1.17,3.76-1.27,4.71-3.02,11.17-9.81,15.31-.04.02-.08.05-.11.07-3.26,1.82-7.79,9.75-11.8,20.7-1.31,3.56-4.45,6.12-8.2,6.67-2.03.3-4.44.55-7.09.65-2.66,4.69-7.42,6.95-12.94,6.95-2.08,0-4.27-.32-6.5-.95l-1.85-.52c-8.17-2.31-13.71-7.9-13.41-15.36-2.42-1.6-4.35-3.1-5.58-4.19-2.87-2.44-4.19-6.24-3.44-9.94,2.32-11.43,2.62-20.55.8-23.82-4.01-7.18-1.29-16.34.23-20.28.36-2.17.47-5.14.6-8.56.23-6.28.52-14.1,2.65-21.43.8-2.82-1.05-6.96-3.39-12.21-4.58-10.29-10.85-24.38-4.99-45.07,6.25-23.78,22.22-40.16,44.95-46.06,5.89-1.53,12.05-2.27,18.26-2.27M75.6,1.73c-7.17,0-14.16.87-20.78,2.59-13.1,3.4-24.3,9.8-33.3,19.02C12.62,32.47,6.3,43.94,2.74,57.43c-6.8,24.13.6,40.76,5.51,51.77.96,2.15,2.23,5.01,2.62,6.43-2.2,8.18-2.51,16.57-2.74,22.77-.09,2.49-.18,4.86-.36,6.46-4.79,13.33-1.9,22.52.52,27.12.29,1.49.51,7.06-1.6,17.46-1.47,7.22,1.09,14.67,6.68,19.47.79.69,1.68,1.43,2.66,2.17,1.98,9.07,9.4,16.41,20.17,19.45l1.85.52c3.12.88,6.22,1.33,9.23,1.33,7.25,0,13.6-2.6,18.11-7.28,1.13-.11,2.26-.25,3.37-.42,7.38-1.09,13.56-6.11,16.13-13.12,3.67-10,6.79-14.62,7.81-15.72,10.14-6.22,12.77-15.96,14.19-21.2.16-.6.39-1.43.56-2,3.73-6.12,9.72-16.77,12.57-26.11,1.06-1,3.66-2.78,5.61-4.12,9.95-6.81,24.97-17.09,31.81-41.14,4.05-13.37,4.69-26.46,1.9-38.91-2.82-12.57-9-23.9-18.38-33.67C124.73,11.82,100.3,1.73,75.6,1.73h0Z"/><path class="cls-2" d="M44.01,210.19c9.01,2.55,17.8,1.93,22.78,1.19,2.5-.37,4.59-2.07,5.46-4.44,2.35-6.41,7.68-19.35,13.36-22.53,7.66-4.67,7.55-12.9,9.71-17.73,2.32-3.75,9.47-15.73,12.04-24.8,3.08-10.88,28.39-13.38,37.18-44.41C169.13,16.56,37.22-20.86,15.72,61c-8.79,31.03,11.45,46.43,8.37,57.31-3.2,11-2.01,23.38-3.23,29.96-1.21,3.04-3.99,11.5-.55,17.65,3.17,5.68.93,19.5-.43,26.19-.5,2.47.39,5.02,2.32,6.64,3.87,3.45,12.84,9.33,21.81,11.44Z"/><path class="cls-2" d="M21.3,147.14s16.46,8.42,34.88,13.63l1.58.45c18.42,5.22,36.85,6.68,36.85,6.68"/><line class="cls-2" x1="22.16" y1="179.88" x2="82.15" y2="187.29"/><path class="cls-4" d="M61.69,211.89c-2.64,9.32-11.44,12.23-20.93,9.55l-1.85-.52c-9.48-2.69-15.45-9.78-12.81-19.1"/><path class="cls-2" d="M43.28,153.36l3.66-50.53c.47-6.49,5.61-11.76,12.1-12.16,4.23-.26,9.89.27,17.39,2.39"/><path class="cls-3" d="M72.47,161.63l23.38-44.95c3-5.77,1.39-12.95-3.93-16.7-3.46-2.44-8.56-4.96-16.06-7.08"/><line class="cls-3" x1="42.18" y1="78.23" x2="33.92" y2="63.45"/><line class="cls-3" x1="67.13" y1="72.85" x2="61.83" y2="49.59"/><line class="cls-3" x1="115.7" y1="99.05" x2="130.48" y2="90.79"/><line class="cls-3" x1="97.27" y1="81.39" x2="113.98" y2="64.36"/></svg>