<svg id="Layer_1" xmlns="http://www.w3.org/2000/svg" viewBox="0 0 258.81 281.75"><defs><style>.cls-1,.cls-2{fill:#ffcbda;}.cls-1,.cls-3{stroke:#ff0096;stroke-linecap:round;stroke-linejoin:round;stroke-width:7px;}.cls-3{fill:none;}.cls-4{fill:#ff0096;}</style></defs><path class="cls-2" d="M101.07,39.32s14.12,20.49,17.4,4.98c3.27-15.51,17.2-1.4,17.2-1.4l-9.64,30.52h-19.28l-5.68-34.1Z"/><path class="cls-2" d="M157.73,39.32s-14.12,20.49-17.4,4.98c-3.27-15.51-17.2-1.4-17.2-1.4l9.64,30.52h19.28s5.68-34.1,5.68-34.1Z"/><path class="cls-2" d="M70.09,53.34s22.64,12.8,8.78,16.13c-13.86,3.33-15.86,6.77-15.86,6.77l31.05-3.6v-9.88l-2.61-6.17-21.36-3.24Z"/><path class="cls-2" d="M189.57,53.34s-22.64,12.8-8.78,16.13c13.86,3.33,15.86,6.77,15.86,6.77l-31.05-3.6v-9.88s2.61-6.17,2.61-6.17l21.36-3.24Z"/><path class="cls-2" d="M83.24,40.99l16.26-3.78c19.32-5.9,39.86-6.5,59.49-1.75l17.17,4.16-10.54,48.73h-73.43l-8.93-47.36Z"/><rect class="cls-2" x="86.04" y="199.93" width="79.53" height="38.48"/><path class="cls-2" d="M131.38,249.73c-4.53,0-8.22-3.69-8.22-8.22v-44.07c0-4.53,3.69-8.22,8.22-8.22s8.22,3.69,8.22,8.22v44.07c0,4.53-3.69,8.22-8.22,8.22Z"/><path class="cls-2" d="M131.38,194.22c1.78,0,3.22,1.44,3.22,3.22v44.07c0,1.78-1.44,3.22-3.22,3.22s-3.22-1.44-3.22-3.22v-44.07c0-1.78,1.44-3.22,3.22-3.22M131.38,184.22c-7.29,0-13.22,5.93-13.22,13.22v44.07c0,7.29,5.93,13.22,13.22,13.22s13.22-5.93,13.22-13.22v-44.07c0-7.29-5.93-13.22-13.22-13.22h0Z"/><path class="cls-2" d="M131.38,267.65c-8.59,0-15.58-6.99-15.58-15.57s6.99-15.57,15.58-15.57,15.57,6.99,15.57,15.57-6.99,15.57-15.57,15.57Z"/><path class="cls-2" d="M131.38,241.51c5.84,0,10.57,4.73,10.57,10.57s-4.73,10.57-10.57,10.57-10.57-4.73-10.57-10.57,4.73-10.57,10.57-10.57M131.38,231.51c-11.34,0-20.57,9.23-20.57,20.57s9.23,20.57,20.57,20.57,20.57-9.23,20.57-20.57-9.23-20.57-20.57-20.57h0Z"/><path class="cls-2" d="M131.38,270.88c-10.36,0-18.8-8.43-18.8-18.8s8.43-18.8,18.8-18.8,18.8,8.43,18.8,18.8-8.43,18.8-18.8,18.8ZM131.38,249.73c-1.3,0-2.35,1.06-2.35,2.35s1.05,2.35,2.35,2.35,2.35-1.05,2.35-2.35-1.06-2.35-2.35-2.35Z"/><path class="cls-2" d="M131.38,238.28c7.61,0,13.8,6.19,13.8,13.8s-6.19,13.8-13.8,13.8-13.8-6.19-13.8-13.8,6.19-13.8,13.8-13.8M131.38,259.43c4.05,0,7.35-3.3,7.35-7.35s-3.3-7.35-7.35-7.35-7.35,3.3-7.35,7.35,3.3,7.35,7.35,7.35M131.38,228.28c-13.12,0-23.8,10.68-23.8,23.8s10.68,23.8,23.8,23.8,23.8-10.67,23.8-23.8-10.68-23.8-23.8-23.8h0Z"/><path class="cls-2" d="M157.7,261.83c-4.53,0-8.22-3.69-8.22-8.22v-48.58c0-4.53,3.69-8.22,8.22-8.22s8.22,3.69,8.22,8.22v40.35h31.27c4.53,0,8.22,3.69,8.22,8.22s-3.69,8.22-8.22,8.22h-39.49Z"/><path class="cls-2" d="M157.7,201.81c1.78,0,3.22,1.44,3.22,3.22v45.35h36.27c1.78,0,3.22,1.44,3.22,3.22s-1.44,3.22-3.22,3.22h-39.49c-1.78,0-3.22-1.44-3.22-3.22v-48.57c0-1.78,1.44-3.22,3.22-3.22M157.7,191.81c-7.29,0-13.22,5.93-13.22,13.22v48.57c0,7.29,5.93,13.22,13.22,13.22h39.49c7.29,0,13.22-5.93,13.22-13.22s-5.93-13.22-13.22-13.22h-26.27v-35.35c0-7.29-5.93-13.22-13.22-13.22h0Z"/><path class="cls-2" d="M197.2,267.65c-8.59,0-15.57-6.99-15.57-15.57s6.99-15.57,15.57-15.57,15.57,6.99,15.57,15.57-6.99,15.57-15.57,15.57Z"/><path class="cls-2" d="M197.2,241.51c5.84,0,10.57,4.73,10.57,10.57s-4.73,10.57-10.57,10.57-10.57-4.73-10.57-10.57,4.73-10.57,10.57-10.57M197.2,231.51c-11.34,0-20.57,9.23-20.57,20.57s9.23,20.57,20.57,20.57,20.57-9.23,20.57-20.57-9.23-20.57-20.57-20.57h0Z"/><path class="cls-2" d="M197.2,270.88c-10.36,0-18.8-8.43-18.8-18.8s8.43-18.8,18.8-18.8,18.8,8.43,18.8,18.8-8.43,18.8-18.8,18.8ZM197.2,249.73c-1.3,0-2.35,1.06-2.35,2.35s1.06,2.35,2.35,2.35,2.35-1.05,2.35-2.35-1.06-2.35-2.35-2.35Z"/><path class="cls-2" d="M197.2,238.28c7.61,0,13.8,6.19,13.8,13.8s-6.19,13.8-13.8,13.8-13.8-6.19-13.8-13.8,6.19-13.8,13.8-13.8M197.2,259.43c4.05,0,7.35-3.3,7.35-7.35s-3.3-7.35-7.35-7.35-7.35,3.3-7.35,7.35,3.3,7.35,7.35,7.35M197.2,228.28c-13.12,0-23.8,10.68-23.8,23.8s10.68,23.8,23.8,23.8,23.8-10.67,23.8-23.8-10.68-23.8-23.8-23.8h0Z"/><path class="cls-2" d="M66.3,243.42c-4.53,0-8.22-3.69-8.22-8.22s3.69-8.22,8.22-8.22h31.27v-40.35c0-4.53,3.69-8.22,8.22-8.22s8.22,3.69,8.22,8.22v48.58c0,4.53-3.69,8.22-8.22,8.22h-39.5Z"/><path class="cls-2" d="M105.79,183.4c1.78,0,3.22,1.44,3.22,3.22v48.57c0,1.78-1.44,3.22-3.22,3.22h-39.49c-1.78,0-3.22-1.44-3.22-3.22s1.44-3.22,3.22-3.22h36.27v-45.35c0-1.78,1.44-3.22,3.22-3.22M105.79,173.4c-7.29,0-13.22,5.93-13.22,13.22v35.35h-26.27c-7.29,0-13.22,5.93-13.22,13.22s5.93,13.22,13.22,13.22h39.49c7.29,0,13.22-5.93,13.22-13.22v-48.57c0-7.29-5.93-13.22-13.22-13.22h0Z"/><path class="cls-2" d="M66.3,249.24c-8.59,0-15.57-6.99-15.57-15.57s6.99-15.57,15.57-15.57,15.57,6.99,15.57,15.57-6.99,15.57-15.57,15.57Z"/><path class="cls-2" d="M66.3,223.09c5.84,0,10.57,4.73,10.57,10.57s-4.73,10.57-10.57,10.57-10.57-4.73-10.57-10.57,4.73-10.57,10.57-10.57M66.3,213.09c-11.34,0-20.57,9.23-20.57,20.57s9.23,20.57,20.57,20.57,20.57-9.23,20.57-20.57-9.23-20.57-20.57-20.57h0Z"/><path class="cls-2" d="M66.3,252.46c-10.36,0-18.8-8.43-18.8-18.8s8.43-18.8,18.8-18.8,18.8,8.43,18.8,18.8-8.43,18.8-18.8,18.8ZM66.3,231.32c-1.3,0-2.35,1.06-2.35,2.35s1.05,2.35,2.35,2.35,2.35-1.05,2.35-2.35-1.06-2.35-2.35-2.35Z"/><path class="cls-2" d="M66.3,219.87c7.61,0,13.8,6.19,13.8,13.8s-6.19,13.8-13.8,13.8-13.8-6.19-13.8-13.8,6.19-13.8,13.8-13.8M66.3,241.02c4.05,0,7.35-3.3,7.35-7.35s-3.3-7.35-7.35-7.35-7.35,3.3-7.35,7.35,3.3,7.35,7.35,7.35M66.3,209.87c-13.12,0-23.8,10.68-23.8,23.8s10.68,23.8,23.8,23.8,23.8-10.67,23.8-23.8-10.68-23.8-23.8-23.8h0Z"/><path class="cls-2" d="M79.94,79.32h98.12c22.61,0,40.96,18.35,40.96,40.96v57.41c0,22.61-18.35,40.96-40.96,40.96h-98.12c-22.61,0-40.96-18.35-40.96-40.96v-57.41c0-22.61,18.35-40.96,40.96-40.96Z"/><path class="cls-2" d="M178.06,84.32c19.86,0,35.96,16.1,35.96,35.96v57.41c0,19.86-16.1,35.96-35.96,35.96h-98.12c-19.86,0-35.96-16.1-35.96-35.96v-57.41c0-19.86,16.1-35.96,35.96-35.96h98.12M178.06,74.32h-98.12c-25.34,0-45.96,20.62-45.96,45.96v57.41c0,25.34,20.62,45.96,45.96,45.96h98.12c25.34,0,45.96-20.62,45.96-45.96v-57.41c0-25.34-20.62-45.96-45.96-45.96h0Z"/><path class="cls-2" d="M79.94,221.87c-24.36,0-44.18-19.82-44.18-44.18v-57.41c0-24.36,19.82-44.18,44.18-44.18h98.12c24.36,0,44.18,19.82,44.18,44.18v57.41c0,24.36-19.82,44.18-44.18,44.18h-98.12ZM79.94,92.54c-15.3,0-27.74,12.44-27.74,27.74v57.41c0,15.3,12.44,27.74,27.74,27.74h98.12c15.3,0,27.74-12.44,27.74-27.74v-57.41c0-15.3-12.44-27.74-27.74-27.74h-98.12Z"/><path class="cls-2" d="M178.06,81.09c21.61,0,39.18,17.58,39.18,39.18v57.41c0,21.61-17.58,39.18-39.18,39.18h-98.12c-21.61,0-39.18-17.58-39.18-39.18v-57.41c0-21.61,17.58-39.18,39.18-39.18h98.12M79.94,210.43h98.12c18.05,0,32.74-14.69,32.74-32.74v-57.41c0-18.05-14.69-32.74-32.74-32.74h-98.12c-18.05,0-32.74,14.69-32.74,32.74v57.41c0,18.05,14.69,32.74,32.74,32.74M178.06,71.09h-98.12c-27.12,0-49.18,22.06-49.18,49.18v57.41c0,27.12,22.06,49.18,49.18,49.18h98.12c27.12,0,49.18-22.06,49.18-49.18v-57.41c0-27.12-22.06-49.18-49.18-49.18h0ZM79.94,200.43c-12.54,0-22.74-10.2-22.74-22.74v-57.41c0-12.54,10.2-22.74,22.74-22.74h98.12c12.54,0,22.74,10.2,22.74,22.74v57.41c0,12.54-10.2,22.74-22.74,22.74h-98.12Z"/><path class="cls-2" d="M35.33,187.79c-12.12,0-21.97-9.86-21.97-21.97v-40.87c0-12.12,9.86-21.97,21.97-21.97h9.05c2.76,0,5,2.24,5,5v74.82c0,2.76-2.24,5-5,5h-9.05Z"/><path class="cls-2" d="M44.38,107.98v74.82h-9.05c-9.37,0-16.97-7.6-16.97-16.97v-40.87c0-9.37,7.6-16.97,16.97-16.97h9.05M44.38,97.98h-9.05c-14.87,0-26.97,12.1-26.97,26.97v40.87c0,14.87,12.1,26.97,26.97,26.97h9.05c5.52,0,10-4.48,10-10v-74.82c0-5.52-4.48-10-10-10h0Z"/><path class="cls-2" d="M35.33,191.01c-13.89,0-25.19-11.3-25.19-25.2v-40.87c0-13.89,11.3-25.19,25.19-25.19h9.05c4.53,0,8.22,3.69,8.22,8.22v74.82c0,4.53-3.69,8.22-8.22,8.22h-9.05ZM35.33,116.2c-4.83,0-8.75,3.92-8.75,8.75v40.87c0,4.83,3.92,8.75,8.75,8.75h.83v-58.37h-.83Z"/><path class="cls-2" d="M44.38,104.75c1.78,0,3.22,1.44,3.22,3.22v74.82c0,1.78-1.44,3.22-3.22,3.22h-9.05c-11.14,0-20.19-9.06-20.19-20.19v-40.87c0-11.13,9.06-20.19,20.19-20.19h9.05M35.33,179.57h5.83v-68.37h-5.83c-7.58,0-13.75,6.17-13.75,13.75v40.87c0,7.58,6.17,13.75,13.75,13.75M44.38,94.75h-9.05c-16.65,0-30.19,13.55-30.19,30.19v40.87c0,16.65,13.55,30.19,30.19,30.19h9.05c7.29,0,13.22-5.93,13.22-13.22v-74.82c0-7.29-5.93-13.22-13.22-13.22h0Z"/><path class="cls-2" d="M214.42,187.79c-2.76,0-5-2.24-5-5v-74.82c0-2.76,2.24-5,5-5h9.05c12.12,0,21.97,9.86,21.97,21.97v40.87c0,12.12-9.86,21.97-21.97,21.97h-9.05Z"/><path class="cls-2" d="M223.48,107.98c9.37,0,16.97,7.6,16.97,16.97v40.87c0,9.37-7.6,16.97-16.97,16.97h-9.05v-74.82h9.05M223.48,97.98h-9.05c-5.52,0-10,4.48-10,10v74.82c0,5.52,4.48,10,10,10h9.05c14.87,0,26.97-12.1,26.97-26.97v-40.87c0-14.87-12.1-26.97-26.97-26.97h0Z"/><path class="cls-2" d="M214.42,191.01c-4.53,0-8.22-3.69-8.22-8.22v-74.82c0-4.53,3.69-8.22,8.22-8.22h9.05c13.89,0,25.19,11.3,25.19,25.19v40.87c0,13.89-11.3,25.2-25.19,25.2h-9.05ZM223.48,174.57c4.83,0,8.75-3.93,8.75-8.75v-40.87c0-4.83-3.92-8.75-8.75-8.75h-.83v58.37h.83Z"/><path class="cls-2" d="M223.48,104.75c11.14,0,20.19,9.06,20.19,20.19v40.87c0,11.14-9.06,20.19-20.19,20.19h-9.06c-1.78,0-3.22-1.44-3.22-3.22v-74.82c0-1.78,1.44-3.22,3.22-3.22h9.06M217.65,179.57h5.83c7.58,0,13.75-6.17,13.75-13.75v-40.87c0-7.58-6.17-13.75-13.75-13.75h-5.83v68.37M223.48,94.75h-9.06c-7.29,0-13.22,5.93-13.22,13.22v74.82c0,7.29,5.93,13.22,13.22,13.22h9.06c16.65,0,30.19-13.55,30.19-30.19v-40.87c0-16.65-13.54-30.19-30.19-30.19h0Z"/><path class="cls-2" d="M129.83,92.54c-4.53,0-8.22-3.69-8.22-8.22v-44.07c0-4.53,3.69-8.22,8.22-8.22s8.22,3.69,8.22,8.22v44.07c0,4.53-3.69,8.22-8.22,8.22Z"/><path class="cls-2" d="M129.83,37.03c1.78,0,3.22,1.44,3.22,3.22v44.07c0,1.78-1.44,3.22-3.22,3.22s-3.22-1.44-3.22-3.22v-44.07c0-1.78,1.44-3.22,3.22-3.22M129.83,27.03c-7.29,0-13.22,5.93-13.22,13.22v44.07c0,7.29,5.93,13.22,13.22,13.22s13.22-5.93,13.22-13.22v-44.07c0-7.29-5.93-13.22-13.22-13.22h0Z"/><path class="cls-2" d="M176.15,55.19c-8.59,0-15.57-6.99-15.57-15.57s6.99-15.57,15.57-15.57,15.57,6.99,15.57,15.57-6.99,15.57-15.57,15.57Z"/><path class="cls-2" d="M176.15,29.05c5.84,0,10.57,4.73,10.57,10.57s-4.73,10.57-10.57,10.57-10.57-4.73-10.57-10.57,4.73-10.57,10.57-10.57M176.15,19.05c-11.34,0-20.57,9.23-20.57,20.57s9.23,20.57,20.57,20.57,20.57-9.23,20.57-20.57-9.23-20.57-20.57-20.57h0Z"/><path class="cls-2" d="M176.15,58.42c-10.36,0-18.8-8.43-18.8-18.8s8.43-18.8,18.8-18.8,18.8,8.43,18.8,18.8-8.43,18.8-18.8,18.8ZM176.15,37.27c-1.3,0-2.35,1.06-2.35,2.35s1.06,2.35,2.35,2.35,2.35-1.05,2.35-2.35-1.05-2.35-2.35-2.35Z"/><path class="cls-2" d="M176.15,25.82c7.61,0,13.8,6.19,13.8,13.8s-6.19,13.8-13.8,13.8-13.8-6.19-13.8-13.8,6.19-13.8,13.8-13.8M176.15,46.97c4.05,0,7.35-3.3,7.35-7.35s-3.3-7.35-7.35-7.35-7.35,3.3-7.35,7.35,3.3,7.35,7.35,7.35M176.15,15.82c-13.12,0-23.8,10.68-23.8,23.8s10.68,23.8,23.8,23.8,23.8-10.68,23.8-23.8-10.68-23.8-23.8-23.8h0Z"/><path class="cls-2" d="M129.83,45.25c-8.59,0-15.57-6.99-15.57-15.57s6.99-15.57,15.57-15.57,15.57,6.99,15.57,15.57-6.99,15.57-15.57,15.57Z"/><path class="cls-2" d="M129.83,19.1c5.84,0,10.57,4.73,10.57,10.57s-4.73,10.57-10.57,10.57-10.57-4.73-10.57-10.57,4.73-10.57,10.57-10.57M129.83,9.1c-11.34,0-20.57,9.23-20.57,20.57s9.23,20.57,20.57,20.57,20.57-9.23,20.57-20.57-9.23-20.57-20.57-20.57h0Z"/><path class="cls-2" d="M129.83,48.47c-10.36,0-18.8-8.43-18.8-18.8s8.43-18.8,18.8-18.8,18.8,8.43,18.8,18.8-8.43,18.8-18.8,18.8ZM129.83,27.32c-1.3,0-2.35,1.06-2.35,2.35s1.06,2.35,2.35,2.35,2.35-1.06,2.35-2.35-1.06-2.35-2.35-2.35Z"/><path class="cls-2" d="M129.83,15.88c7.61,0,13.8,6.19,13.8,13.8s-6.19,13.8-13.8,13.8-13.8-6.19-13.8-13.8,6.19-13.8,13.8-13.8M129.83,37.03c4.05,0,7.35-3.3,7.35-7.35s-3.3-7.35-7.35-7.35-7.35,3.3-7.35,7.35,3.3,7.35,7.35,7.35M129.83,5.88c-13.12,0-23.8,10.68-23.8,23.8s10.68,23.8,23.8,23.8,23.8-10.68,23.8-23.8-10.68-23.8-23.8-23.8h0Z"/><path class="cls-2" d="M158.57,92.54c-4.53,0-8.22-3.69-8.22-8.22v-21.76c0-1.89.66-3.73,1.85-5.2l11.4-13.99c1.57-1.92,3.89-3.03,6.38-3.03,1.89,0,3.73.66,5.19,1.85,3.51,2.87,4.04,8.06,1.18,11.57l-9.55,11.72v18.84c0,4.53-3.69,8.22-8.22,8.22Z"/><path class="cls-2" d="M169.97,45.34c.72,0,1.44.24,2.03.72,1.38,1.12,1.59,3.15.46,4.53l-10.68,13.1v20.61c0,1.78-1.44,3.22-3.22,3.22s-3.22-1.44-3.22-3.22v-21.76c0-.74.26-1.46.72-2.04l11.4-13.99c.64-.78,1.56-1.19,2.5-1.19M169.97,35.34h0c-3.99,0-7.73,1.78-10.25,4.87l-11.4,13.99c-1.92,2.35-2.97,5.32-2.97,8.35v21.76c0,7.29,5.93,13.22,13.22,13.22s13.22-5.93,13.22-13.22v-17.06l8.43-10.34c2.23-2.74,3.26-6.18,2.9-9.69-.36-3.51-2.06-6.68-4.8-8.91-2.35-1.92-5.32-2.97-8.35-2.97h0Z"/><path class="cls-2" d="M83.45,55.19c-8.59,0-15.57-6.99-15.57-15.57s6.99-15.57,15.57-15.57,15.57,6.99,15.57,15.57-6.99,15.57-15.57,15.57Z"/><path class="cls-2" d="M83.45,29.05c5.84,0,10.57,4.73,10.57,10.57s-4.73,10.57-10.57,10.57-10.57-4.73-10.57-10.57,4.73-10.57,10.57-10.57M83.45,19.05c-11.34,0-20.57,9.23-20.57,20.57s9.23,20.57,20.57,20.57,20.57-9.23,20.57-20.57-9.23-20.57-20.57-20.57h0Z"/><path class="cls-2" d="M83.45,58.42c-10.36,0-18.8-8.43-18.8-18.8s8.43-18.8,18.8-18.8,18.8,8.43,18.8,18.8-8.43,18.8-18.8,18.8ZM83.45,37.27c-1.3,0-2.35,1.06-2.35,2.35s1.06,2.35,2.35,2.35,2.35-1.05,2.35-2.35-1.05-2.35-2.35-2.35Z"/><path class="cls-2" d="M83.45,25.82c7.61,0,13.8,6.19,13.8,13.8s-6.19,13.8-13.8,13.8-13.8-6.19-13.8-13.8,6.19-13.8,13.8-13.8M83.45,46.97c4.05,0,7.35-3.3,7.35-7.35s-3.3-7.35-7.35-7.35-7.35,3.3-7.35,7.35,3.3,7.35,7.35,7.35M83.45,15.82c-13.12,0-23.8,10.68-23.8,23.8s10.68,23.8,23.8,23.8,23.8-10.68,23.8-23.8-10.68-23.8-23.8-23.8h0Z"/><path class="cls-2" d="M176.15,151.96c-8.59,0-15.57-6.99-15.57-15.57s6.99-15.57,15.57-15.57,15.57,6.99,15.57,15.57-6.99,15.57-15.57,15.57Z"/><path class="cls-2" d="M176.15,125.81c5.84,0,10.57,4.73,10.57,10.57s-4.73,10.57-10.57,10.57-10.57-4.73-10.57-10.57,4.73-10.57,10.57-10.57M176.15,115.81c-11.34,0-20.57,9.23-20.57,20.57s9.23,20.57,20.57,20.57,20.57-9.23,20.57-20.57-9.23-20.57-20.57-20.57h0Z"/><path class="cls-2" d="M83.45,151.96c-8.59,0-15.57-6.99-15.57-15.57s6.99-15.57,15.57-15.57,15.57,6.99,15.57,15.57-6.99,15.57-15.57,15.57Z"/><path class="cls-2" d="M83.45,125.81c5.84,0,10.57,4.73,10.57,10.57s-4.73,10.57-10.57,10.57-10.57-4.73-10.57-10.57,4.73-10.57,10.57-10.57M83.45,115.81c-11.34,0-20.57,9.23-20.57,20.57s9.23,20.57,20.57,20.57,20.57-9.23,20.57-20.57-9.23-20.57-20.57-20.57h0Z"/><path class="cls-2" d="M101.04,92.54c-4.53,0-8.22-3.69-8.22-8.22v-18.84l-9.55-11.72c-2.86-3.51-2.34-8.7,1.18-11.57,1.47-1.19,3.31-1.85,5.2-1.85,2.49,0,4.81,1.1,6.38,3.03l11.4,13.99c1.19,1.46,1.85,3.3,1.85,5.19v21.76c0,4.53-3.69,8.22-8.22,8.22Z"/><path class="cls-2" d="M89.63,45.34c.94,0,1.86.41,2.5,1.19l11.4,13.99c.47.57.72,1.29.72,2.04v21.76c0,1.78-1.44,3.22-3.22,3.22s-3.22-1.44-3.22-3.22v-20.61l-10.68-13.1c-1.12-1.38-.92-3.41.46-4.53.6-.49,1.32-.72,2.03-.72M89.63,35.34h0c-3.03,0-6,1.06-8.35,2.97-2.74,2.23-4.44,5.4-4.8,8.91-.36,3.51.67,6.96,2.91,9.7l8.43,10.34v17.06c0,7.29,5.93,13.22,13.22,13.22s13.22-5.93,13.22-13.22v-21.76c0-3.03-1.06-6-2.97-8.35l-11.4-13.99c-2.52-3.09-6.25-4.87-10.25-4.87h0Z"/><path class="cls-2" d="M129.41,197.14c-20.25,0-36.71-12.54-36.71-27.95,0-2.76,2.24-5,5-5h63.43c2.76,0,5,2.24,5,5,0,15.41-16.47,27.95-36.71,27.95Z"/><path class="cls-2" d="M161.12,169.2c0,12.67-14.2,22.95-31.71,22.95s-31.71-10.27-31.71-22.95h63.43M161.12,159.2h-63.43c-5.52,0-10,4.48-10,10,0,9.29,4.89,18.15,13.43,24.33,7.68,5.56,17.73,8.62,28.29,8.62s20.61-3.06,28.29-8.62c8.53-6.17,13.43-15.04,13.43-24.33,0-5.52-4.48-10-10-10h0ZM161.12,179.2h0,0Z"/><path class="cls-2" d="M129.41,200.37c-22.02,0-39.94-13.98-39.94-31.17,0-4.53,3.69-8.22,8.22-8.22h63.43c4.53,0,8.22,3.69,8.22,8.22,0,17.19-17.92,31.17-39.94,31.17ZM110.1,177.42c4.34,3.91,11.56,6.5,19.31,6.5s14.97-2.59,19.31-6.5h-38.61Z"/><path class="cls-2" d="M161.12,165.98c1.78,0,3.22,1.44,3.22,3.22,0,14.43-15.67,26.17-34.94,26.17s-34.94-11.74-34.94-26.17c0-1.78,1.44-3.22,3.22-3.22h63.43M157.52,172.42h-56.22c2.23,9.35,13.99,16.5,28.11,16.5s25.88-7.15,28.11-16.5M161.12,155.98h-63.43c-7.29,0-13.22,5.93-13.22,13.22,0,10.06,5.19,19.72,14.25,26.5,8.32,6.24,19.22,9.67,30.69,9.67s22.36-3.43,30.69-9.67c9.06-6.78,14.25-16.44,14.25-26.5,0-7.29-5.93-13.22-13.22-13.22h0Z"/><line class="cls-3" x1="131.38" y1="197.44" x2="131.38" y2="241.51"/><circle class="cls-1" cx="131.38" cy="252.08" r="10.57"/><polyline class="cls-3" points="157.7 205.03 157.7 253.61 197.2 253.61"/><circle class="cls-1" cx="197.2" cy="252.08" r="10.57"/><polyline class="cls-3" points="105.79 186.62 105.79 235.19 66.3 235.19"/><circle class="cls-1" cx="66.3" cy="233.67" r="10.57"/><rect class="cls-1" x="43.98" y="84.32" width="170.04" height="129.33" rx="35.96" ry="35.96"/><path class="cls-1" d="M35.33,107.98h9.05v74.82h-9.05c-9.37,0-16.97-7.61-16.97-16.97v-40.87c0-9.37,7.61-16.97,16.97-16.97Z"/><path class="cls-1" d="M231.4,107.98h9.05v74.82h-9.05c-9.37,0-16.97-7.61-16.97-16.97v-40.87c0-9.37,7.61-16.97,16.97-16.97Z" transform="translate(454.88 290.77) rotate(180)"/><line class="cls-3" x1="129.83" y1="84.32" x2="129.83" y2="40.25"/><circle class="cls-1" cx="176.15" cy="39.62" r="10.57"/><circle class="cls-1" cx="129.83" cy="29.67" r="10.57"/><polyline class="cls-3" points="158.57 84.32 158.57 62.55 169.97 48.56"/><circle class="cls-1" cx="83.45" cy="39.62" r="10.57"/><ellipse class="cls-4" cx="176.15" cy="136.38" rx="10.57" ry="18.41"/><ellipse class="cls-4" cx="83.45" cy="136.38" rx="10.57" ry="18.41"/><polyline class="cls-3" points="101.04 84.32 101.04 62.55 89.64 48.56"/><path class="cls-1" d="M161.12,169.2c0,12.67-14.2,22.95-31.71,22.95s-31.71-10.27-31.71-22.95h63.43Z"/></svg>