<?xml version="1.0" encoding="UTF-8"?><svg id="Layer_1" xmlns="http://www.w3.org/2000/svg" viewBox="0 0 231.24 253.39"><defs><style>.cls-1{stroke:#FF0096;stroke-linecap:round;stroke-linejoin:round;stroke-width:7.7px;}.cls-1,.cls-2{fill:#FFCBDA;}.cls-3{fill:#FF0096;}</style></defs><path class="cls-2" d="M55.51,188.49l18.85,19.16,7.13-7.01-18.85-19.16-7.13,7.01h0ZM73.46,194.68c-.67.9-16.82,21.89-45.57,16.38l-1.88,9.82c34.77,6.66,54.46-18.87,55.45-20.19l-8-6h0ZM35.84,219.05c-5.56-29.94,14.15-48.1,14.99-48.85l-6.69-7.43c-1.2,1.08-24.7,22.77-18.13,58.11l9.83-1.83h0ZM37.06,169.74l18.85,19.16,7.13-7.01-18.85-19.16-7.13,7.01h0ZM73.46,194.68l-.04.05,3.93,2.87-3.89-2.92h0ZM77.35,197.6l4.1,3.08.05-.05h0l-4.15-3.03h0ZM81.5,200.63l-.05.05h0s.04-.05.04-.05h0ZM81.45,200.68l-7.08,6.97,7.08-6.97h0ZM27.89,211.06l-1.88,9.82h0l1.88-9.82h0ZM35.84,219.05l-9.83,1.83h0l9.83-1.83h0ZM44.19,162.73l-.05.04,3.43,3.8-3.38-3.85h0ZM44.19,162.73s-.02.01-.05.04h0s.05-.04.05-.04h0ZM44.14,162.77l-7.08,6.97,7.08-6.97h0ZM47.57,166.57l3.22,3.66.05-.04-3.26-3.62h0Z" /><path class="cls-2" d="M44.19,158.88c1,0,1.99.39,2.74,1.15l18.85,19.16h.01s18.44,18.75,18.44,18.75c1.32,1.34,1.48,3.45.36,4.97-.77,1.05-17.16,22.95-47.04,22.95-3.87,0-7.96-.37-12.28-1.19-1.56-.3-2.77-1.52-3.06-3.08-7.05-37.97,18.34-60.79,19.42-61.75.73-.64,1.64-.96,2.54-.96M37.49,218.14c20.66,0,33.92-11.96,38.81-17.3l-16.4-16.66s0,0-.01-.02l-15.71-15.96c-5.69,6.29-18.54,23.67-14.82,49.34,2.83.41,5.54.6,8.13.6M44.19,148.88h0c-3.36,0-6.61,1.22-9.14,3.44-1.41,1.24-8.74,8-15,19.82-8.32,15.7-10.97,33.43-7.66,51.26,1.05,5.65,5.37,9.99,11.01,11.07,4.75.91,9.52,1.37,14.16,1.37,14.35,0,28.26-4.47,40.21-12.92,9.01-6.37,14-12.89,14.91-14.13,4.02-5.51,3.47-13.03-1.31-17.89l-18.44-18.73s-.03-.03-.04-.04l-18.82-19.13c-2.62-2.67-6.13-4.13-9.87-4.13h0ZM38.7,208.13c.07-10.26,3.22-18.54,6.63-24.5l7.41,7.53s.02.02.03.04h0s9,9.15,9,9.15c-5.37,3.78-13.14,7.51-23.08,7.79h0Z"/><path class="cls-2" d="M53.56,137.33l55.61,52.46-27.67,10.84-37.31-37.9,9.37-25.4M53.56,127.33c-.76,0-1.53.09-2.29.26-3.27.77-5.93,3.12-7.1,6.28l-9.37,25.4c-1.34,3.63-.46,7.71,2.26,10.47l37.31,37.9c1.92,1.95,4.5,2.99,7.13,2.99,1.23,0,2.46-.23,3.65-.69l27.67-10.84c3.19-1.25,5.52-4.04,6.17-7.41s-.46-6.83-2.95-9.18l-55.61-52.46c-1.88-1.77-4.34-2.73-6.86-2.73h0Z"/><path class="cls-2" d="M53.55,133.48c.97,0,1.92.37,2.64,1.05l55.61,52.46c.96.9,1.39,2.24,1.14,3.53-.25,1.29-1.15,2.37-2.38,2.85l-27.67,10.84c-.46.18-.93.27-1.4.27-1.01,0-2.01-.4-2.74-1.15l-37.31-37.9c-1.05-1.06-1.38-2.63-.87-4.03l9.37-25.4c.45-1.21,1.47-2.12,2.73-2.42.29-.07.59-.1.88-.1M82.46,196.12l19.65-7.7-46.95-44.3-6.51,17.64,33.81,34.35M53.55,123.48c-1.06,0-2.12.12-3.16.37-4.54,1.07-8.22,4.32-9.83,8.69l-9.37,25.4c-1.85,5.01-.62,10.71,3.13,14.51l37.31,37.9c2.58,2.63,6.18,4.13,9.87,4.13,1.73,0,3.43-.32,5.04-.95l27.68-10.84c4.44-1.74,7.64-5.58,8.55-10.26.91-4.68-.62-9.44-4.09-12.71l-55.61-52.46c-2.58-2.44-5.96-3.78-9.51-3.78h0Z"/><path class="cls-2" d="M207.78,31.41c1.74,0,3.17,1.46,3.12,3.25-1.77,74.71-61.58,113.86-61.58,113.86l.39,40.88-25.88,26.3L30.92,121.46l27.22-27.65h37.35s33.48-58.32,112.14-62.4c.05,0,.11,0,.16,0M207.78,21.41c-.22,0-.45,0-.68.02-43.37,2.25-73.66,20.28-91.43,35.02-12.99,10.77-21.36,21.36-25.59,27.37h-31.95c-2.68,0-5.25,1.08-7.13,2.99l-27.22,27.65c-3.83,3.89-3.83,10.15,0,14.04l92.92,94.23c1.88,1.91,4.44,2.98,7.12,2.98h0c2.68,0,5.24-1.08,7.12-2.99l25.88-26.3c1.86-1.89,2.9-4.45,2.87-7.11l-.34-35.72c5.96-4.58,16.89-13.87,27.91-27.75,21.22-26.74,32.84-58.18,33.62-90.92.08-3.53-1.28-7.01-3.75-9.53-2.45-2.51-5.87-3.95-9.37-3.95h0Z"/><path class="cls-2" d="M207.78,27.56c1.79,0,3.55.71,4.85,1.97,1.4,1.36,2.17,3.26,2.13,5.22-.94,39.66-18.08,69.34-32.29,87.25-12.52,15.78-24.79,25.29-29.27,28.52l.38,38.84c.01,1.02-.39,2.01-1.11,2.74l-25.88,26.3c-.72.73-1.71,1.15-2.74,1.15h0c-1.03,0-2.02-.41-2.74-1.15L28.18,124.16c-1.48-1.5-1.48-3.9,0-5.4l27.22-27.65c.72-.74,1.71-1.15,2.74-1.15h35.21c2.96-4.56,11.41-16.48,26.26-28.78,17.06-14.14,46.14-31.45,87.82-33.61.12,0,.24,0,.36,0M207.04,35.3c-75.13,4.26-107.89,59.86-108.22,60.43-.69,1.2-1.96,1.93-3.34,1.93h-35.74l-23.42,23.8,87.51,88.75,22.02-22.37-.38-39.28c-.01-1.31.64-2.54,1.74-3.26.14-.09,14.77-9.81,29.39-28.3,13.31-16.84,29.35-44.65,30.43-81.69M207.78,17.56c-.3,0-.59,0-.89.02-44.41,2.3-75.45,20.79-93.67,35.9-12.26,10.16-20.51,20.17-25.12,26.48h-29.96c-3.69,0-7.28,1.51-9.87,4.13l-27.22,27.65c-5.28,5.36-5.27,14.08.01,19.44l92.92,94.23c2.58,2.62,6.18,4.13,9.86,4.13,3.69,0,7.28-1.51,9.87-4.13l25.89-26.3c2.56-2.6,4.02-6.2,3.98-9.85l-.33-33.81c6.35-5.03,16.65-14.11,27.06-27.23,15.16-19.11,33.45-50.79,34.45-93.23.11-4.73-1.77-9.33-5.16-12.62-3.14-3.05-7.45-4.8-11.82-4.8h0ZM107.46,100.76c.25-.41,8.11-13.4,24.36-26.62,18.64-15.16,40.25-24.47,64.37-27.76-3.5,28.7-16.48,50.56-27.42,64.41-13.26,16.78-26.65,25.88-27.07,26.16-3.94,2.6-6.27,6.97-6.22,11.7l.34,35.13-11.99,12.18L50.36,121.45l13.57-13.79h31.55c4.93,0,9.51-2.64,11.98-6.9h0Z"/><polygon class="cls-2" points="93.17 166.64 128.21 131.05 121.08 124.03 86.04 159.63 93.17 166.64 93.17 166.64"/><path class="cls-2" d="M121.08,120.18c.98,0,1.95.37,2.7,1.11,1.52,1.49,1.53,3.93.04,5.44l-35.04,35.6c-.75.77-1.75,1.15-2.74,1.15s-1.95-.37-2.7-1.11c-1.52-1.49-1.53-3.93-.04-5.44l35.04-35.6c.75-.77,1.75-1.15,2.74-1.15M121.08,110.18h0c-3.74,0-7.24,1.47-9.87,4.13l-35.04,35.6c-5.36,5.44-5.29,14.23.15,19.59,2.61,2.57,6.06,3.98,9.72,3.98s7.24-1.47,9.87-4.13l35.04-35.6c5.36-5.44,5.29-14.23-.15-19.59-2.61-2.57-6.06-3.98-9.72-3.98h0Z"/><path class="cls-2" d="M143.09,80.7c10.57,0,19.14,8.71,19.14,19.45s-8.57,19.45-19.14,19.45-19.14-8.71-19.14-19.45,8.57-19.45,19.14-19.45M143.09,70.7c-16.07,0-29.14,13.21-29.14,29.45s13.07,29.45,29.14,29.45,29.14-13.21,29.14-29.45-13.07-29.45-29.14-29.45h0Z"/><path class="cls-2" d="M143.09,76.85c12.68,0,22.99,10.45,22.99,23.3s-10.31,23.3-22.99,23.3-22.99-10.45-22.99-23.3,10.31-23.3,22.99-23.3M143.09,115.75c8.43,0,15.29-7,15.29-15.6s-6.86-15.6-15.29-15.6-15.29,7-15.29,15.6,6.86,15.6,15.29,15.6M143.09,66.85c-18.19,0-32.99,14.94-32.99,33.3s14.8,33.3,32.99,33.3,32.99-14.94,32.99-33.3-14.8-33.3-32.99-33.3h0ZM143.09,105.75c-2.92,0-5.29-2.51-5.29-5.6s2.37-5.6,5.29-5.6,5.29,2.51,5.29,5.6-2.37,5.6-5.29,5.6h0Z"/><polygon class="cls-2" points="144.78 52.92 190.83 96.63 197.72 89.37 151.66 45.67 144.78 52.92 144.78 52.92"/><path class="cls-2" d="M151.66,41.82c.95,0,1.9.35,2.65,1.06l46.05,43.7c1.54,1.46,1.61,3.9.14,5.44-.76.8-1.77,1.2-2.79,1.2-.95,0-1.9-.35-2.65-1.06l-46.05-43.7c-1.54-1.46-1.61-3.9-.14-5.44.76-.8,1.78-1.2,2.79-1.2M151.67,31.82h0c-3.78,0-7.44,1.57-10.04,4.31-5.26,5.54-5.03,14.33.51,19.58l46.05,43.7c2.58,2.45,5.97,3.8,9.53,3.8,3.78,0,7.44-1.57,10.05-4.32,5.26-5.54,5.03-14.32-.51-19.58l-46.05-43.7c-2.59-2.45-5.97-3.8-9.53-3.8h0Z"/><polygon class="cls-2" points="80.9 123 101.92 102.04 94.86 94.96 73.84 115.92 80.9 123 80.9 123"/><path class="cls-2" d="M94.86,91.11c.99,0,1.97.38,2.73,1.13,1.5,1.51,1.5,3.94,0,5.44l-21.02,20.97c-.75.75-1.74,1.12-2.72,1.12s-1.97-.38-2.73-1.13c-1.5-1.51-1.5-3.94,0-5.44l21.02-20.97c.75-.75,1.74-1.12,2.72-1.12M94.86,81.11h0c-3.69,0-7.17,1.44-9.78,4.04l-21.02,20.97c-5.41,5.39-5.42,14.18-.02,19.59,2.62,2.62,6.1,4.07,9.81,4.07s7.17-1.44,9.78-4.04l21.02-20.97c5.41-5.39,5.42-14.18.02-19.59-2.62-2.62-6.1-4.07-9.81-4.07h0Z"/><polygon class="cls-2" points="134.68 177.02 155.69 156.06 148.63 148.98 127.61 169.94 134.68 177.02 134.68 177.02"/><path class="cls-2" d="M148.63,145.13c.99,0,1.97.38,2.73,1.13,1.5,1.51,1.5,3.94,0,5.44l-21.02,20.97c-.75.75-1.74,1.12-2.72,1.12s-1.97-.38-2.73-1.13c-1.5-1.51-1.5-3.94,0-5.44l21.02-20.97c.75-.75,1.74-1.12,2.72-1.12M148.63,135.13c-3.69,0-7.17,1.44-9.78,4.04l-21.02,20.97c-5.41,5.39-5.42,14.18-.02,19.59,2.62,2.62,6.1,4.07,9.81,4.07s7.17-1.44,9.78-4.04l21.02-20.97c5.41-5.39,5.42-14.18.02-19.59-2.62-2.62-6.1-4.07-9.81-4.07h0Z"/><path class="cls-1" d="M62.64,181.48l18.85,19.16s-19.8,27.09-55.49,20.25c-6.73-36.26,18.18-58.15,18.18-58.15l18.85,19.16"/><polygon class="cls-1" points="53.56 137.33 44.19 162.73 81.5 200.63 109.17 189.79 53.56 137.33"/><path class="cls-1" d="M95.48,93.81s33.48-58.32,112.14-62.4c1.81-.09,3.33,1.4,3.29,3.25-1.77,74.71-61.58,113.86-61.58,113.86l.39,40.88-25.88,26.3L30.92,121.46l27.22-27.65h37.35"/><line class="cls-1" x1="86.04" y1="159.63" x2="121.08" y2="124.03"/><ellipse class="cls-1" cx="143.09" cy="100.15" rx="19.14" ry="19.45"/><line class="cls-1" x1="151.66" y1="45.67" x2="197.72" y2="89.37"/><line class="cls-1" x1="73.84" y1="115.92" x2="94.86" y2="94.96"/><line class="cls-1" x1="127.61" y1="169.94" x2="148.63" y2="148.98"/><path class="cls-3" d="M52.5,173.8l-12.67,29.03c-1.16,2.67,1.68,5.31,4.25,3.96l27.6-14.46-19.18-18.52Z"/><path class="cls-2" d="M53.26,188.49l18.85,19.16,7.13-7.01-18.85-19.16-7.13,7.01h0ZM71.2,194.68c-.67.9-16.82,21.89-45.57,16.38l-1.88,9.82c34.77,6.66,54.46-18.87,55.45-20.19l-8-6h0ZM33.58,219.05c-5.56-29.94,14.15-48.1,14.99-48.85l-6.69-7.43c-1.2,1.08-24.7,22.77-18.13,58.11l9.83-1.83h0ZM34.8,169.74l18.85,19.16,7.13-7.01-18.85-19.16-7.13,7.01h0ZM71.2,194.68l-.04.05,3.93,2.87-3.89-2.92h0ZM75.09,197.6l4.1,3.08.05-.05h0l-4.15-3.03h0ZM79.24,200.63l-.05.05h0s.04-.05.04-.05h0ZM79.19,200.68l-7.08,6.97,7.08-6.97h0ZM25.63,211.06l-1.88,9.82h0l1.88-9.82h0ZM33.58,219.05l-9.83,1.83h0l9.83-1.83h0ZM41.93,162.73l-.05.04,3.43,3.8-3.38-3.85h0ZM41.93,162.73s-.02.01-.05.04h0s.05-.04.05-.04h0ZM41.88,162.77l-7.08,6.97,7.08-6.97h0ZM45.31,166.57l3.22,3.66.05-.04-3.26-3.62h0Z"/><path class="cls-2" d="M41.93,158.88c1,0,1.99.39,2.74,1.15l18.85,19.16h.01s18.44,18.75,18.44,18.75c1.32,1.34,1.48,3.45.36,4.97-.77,1.05-17.16,22.95-47.04,22.95-3.87,0-7.96-.37-12.28-1.19-1.56-.3-2.77-1.52-3.06-3.08-7.05-37.97,18.34-60.79,19.42-61.75.73-.64,1.64-.96,2.54-.96M35.23,218.14c20.66,0,33.92-11.96,38.81-17.3l-16.4-16.66s0,0-.01-.02l-15.71-15.96c-5.69,6.29-18.54,23.67-14.82,49.34,2.83.41,5.54.6,8.13.6M41.93,148.88h0c-3.36,0-6.61,1.22-9.14,3.44-1.41,1.24-8.74,8-15,19.82-8.32,15.7-10.97,33.43-7.66,51.26,1.05,5.65,5.37,9.99,11.01,11.07,4.75.91,9.52,1.37,14.16,1.37,14.35,0,28.26-4.47,40.21-12.92,9.01-6.37,14-12.89,14.91-14.13,4.02-5.51,3.47-13.03-1.31-17.89l-18.44-18.73s-.03-.03-.04-.04l-18.82-19.13c-2.62-2.67-6.13-4.13-9.87-4.13h0ZM36.44,208.13c.07-10.26,3.22-18.54,6.63-24.5l7.41,7.53s.02.02.03.04h0s9,9.15,9,9.15c-5.37,3.78-13.14,7.51-23.08,7.79h0Z"/><path class="cls-2" d="M51.3,137.33l55.61,52.46-27.67,10.84-37.31-37.9,9.37-25.4M51.3,127.33c-.76,0-1.53.09-2.29.26-3.27.77-5.93,3.12-7.1,6.28l-9.37,25.4c-1.34,3.63-.46,7.71,2.26,10.47l37.31,37.9c1.92,1.95,4.5,2.99,7.13,2.99,1.23,0,2.46-.23,3.65-.69l27.67-10.84c3.19-1.25,5.52-4.04,6.17-7.41s-.46-6.83-2.95-9.18l-55.61-52.46c-1.88-1.77-4.34-2.73-6.86-2.73h0Z"/><path class="cls-2" d="M51.29,133.48c.97,0,1.92.37,2.64,1.05l55.61,52.46c.96.9,1.39,2.24,1.14,3.53-.25,1.29-1.15,2.37-2.38,2.85l-27.67,10.84c-.46.18-.93.27-1.4.27-1.01,0-2.01-.4-2.74-1.15l-37.31-37.9c-1.05-1.06-1.38-2.63-.87-4.03l9.37-25.4c.45-1.21,1.47-2.12,2.73-2.42.29-.07.59-.1.88-.1M80.2,196.12l19.65-7.7-46.95-44.3-6.51,17.64,33.81,34.35M51.29,123.48c-1.06,0-2.12.12-3.16.37-4.54,1.07-8.22,4.32-9.83,8.69l-9.37,25.4c-1.85,5.01-.62,10.71,3.13,14.51l37.31,37.9c2.58,2.63,6.18,4.13,9.87,4.13,1.73,0,3.43-.32,5.04-.95l27.68-10.84c4.44-1.74,7.64-5.58,8.55-10.26.91-4.68-.62-9.44-4.09-12.71l-55.61-52.46c-2.58-2.44-5.96-3.78-9.51-3.78h0Z"/><path class="cls-2" d="M205.52,31.41c1.74,0,3.17,1.46,3.12,3.25-1.77,74.71-61.58,113.86-61.58,113.86l.39,40.88-25.88,26.3L28.66,121.46l27.22-27.65h37.35s33.48-58.32,112.14-62.4c.05,0,.11,0,.16,0M205.52,21.41c-.22,0-.45,0-.68.02-43.37,2.25-73.66,20.28-91.43,35.02-12.99,10.77-21.36,21.36-25.59,27.37h-31.95c-2.68,0-5.25,1.08-7.13,2.99l-27.22,27.65c-3.83,3.89-3.83,10.15,0,14.04l92.92,94.23c1.88,1.91,4.44,2.98,7.12,2.98h0c2.68,0,5.24-1.08,7.12-2.99l25.88-26.3c1.86-1.89,2.9-4.45,2.87-7.11l-.34-35.72c5.96-4.58,16.89-13.87,27.91-27.75,21.22-26.74,32.84-58.18,33.62-90.92.08-3.53-1.28-7.01-3.75-9.53-2.45-2.51-5.87-3.95-9.37-3.95h0Z"/><path class="cls-2" d="M205.52,27.56c1.79,0,3.55.71,4.85,1.97,1.4,1.36,2.17,3.26,2.13,5.22-.94,39.66-18.08,69.34-32.29,87.25-12.52,15.78-24.79,25.29-29.27,28.52l.38,38.84c.01,1.02-.39,2.01-1.11,2.74l-25.88,26.3c-.72.73-1.71,1.15-2.74,1.15h0c-1.03,0-2.02-.41-2.74-1.15L25.92,124.16c-1.48-1.5-1.48-3.9,0-5.4l27.22-27.65c.72-.74,1.71-1.15,2.74-1.15h35.21c2.96-4.56,11.41-16.48,26.26-28.78,17.06-14.14,46.14-31.45,87.82-33.61.12,0,.24,0,.36,0M204.78,35.3c-75.13,4.26-107.89,59.86-108.22,60.43-.69,1.2-1.96,1.93-3.34,1.93h-35.74l-23.42,23.8,87.51,88.75,22.02-22.37-.38-39.28c-.01-1.31.64-2.54,1.74-3.26.14-.09,14.77-9.81,29.39-28.3,13.31-16.84,29.35-44.65,30.43-81.69M205.52,17.56c-.3,0-.59,0-.89.02-44.41,2.3-75.45,20.79-93.67,35.9-12.26,10.16-20.51,20.17-25.12,26.48h-29.96c-3.69,0-7.28,1.51-9.87,4.13l-27.22,27.65c-5.28,5.36-5.27,14.08.01,19.44l92.92,94.23c2.58,2.62,6.18,4.13,9.86,4.13,3.69,0,7.28-1.51,9.87-4.13l25.89-26.3c2.56-2.6,4.02-6.2,3.98-9.85l-.33-33.81c6.35-5.03,16.65-14.11,27.06-27.23,15.16-19.11,33.45-50.79,34.45-93.23.11-4.73-1.77-9.33-5.16-12.62-3.14-3.05-7.45-4.8-11.82-4.8h0ZM105.21,100.76c.25-.41,8.11-13.4,24.36-26.62,18.64-15.16,40.25-24.47,64.37-27.76-3.5,28.7-16.48,50.56-27.42,64.41-13.26,16.78-26.65,25.88-27.07,26.16-3.94,2.6-6.27,6.97-6.22,11.7l.34,35.13-11.99,12.18L48.1,121.45l13.57-13.79h31.55c4.93,0,9.51-2.64,11.98-6.9h0Z"/><polygon class="cls-2" points="90.91 166.64 125.95 131.05 118.82 124.03 83.78 159.63 90.91 166.64 90.91 166.64"/><path class="cls-2" d="M118.82,120.18c.98,0,1.95.37,2.7,1.11,1.52,1.49,1.53,3.93.04,5.44l-35.04,35.6c-.75.77-1.75,1.15-2.74,1.15s-1.95-.37-2.7-1.11c-1.52-1.49-1.53-3.93-.04-5.44l35.04-35.6c.75-.77,1.75-1.15,2.74-1.15M118.82,110.18h0c-3.74,0-7.24,1.47-9.87,4.13l-35.04,35.6c-5.36,5.44-5.29,14.23.15,19.59,2.61,2.57,6.06,3.98,9.72,3.98s7.24-1.47,9.87-4.13l35.04-35.6c5.36-5.44,5.29-14.23-.15-19.59-2.61-2.57-6.06-3.98-9.72-3.98h0Z"/><path class="cls-2" d="M140.83,80.7c10.57,0,19.14,8.71,19.14,19.45s-8.57,19.45-19.14,19.45-19.14-8.71-19.14-19.45,8.57-19.45,19.14-19.45M140.83,70.7c-16.07,0-29.14,13.21-29.14,29.45s13.07,29.45,29.14,29.45,29.14-13.21,29.14-29.45-13.07-29.45-29.14-29.45h0Z"/><path class="cls-2" d="M140.83,76.85c12.68,0,22.99,10.45,22.99,23.3s-10.31,23.3-22.99,23.3-22.99-10.45-22.99-23.3,10.31-23.3,22.99-23.3M140.83,115.75c8.43,0,15.29-7,15.29-15.6s-6.86-15.6-15.29-15.6-15.29,7-15.29,15.6,6.86,15.6,15.29,15.6M140.83,66.85c-18.19,0-32.99,14.94-32.99,33.3s14.8,33.3,32.99,33.3,32.99-14.94,32.99-33.3-14.8-33.3-32.99-33.3h0ZM140.83,105.75c-2.92,0-5.29-2.51-5.29-5.6s2.37-5.6,5.29-5.6,5.29,2.51,5.29,5.6-2.37,5.6-5.29,5.6h0Z"/><polygon class="cls-2" points="142.52 52.92 188.58 96.63 195.46 89.37 149.41 45.67 142.52 52.92 142.52 52.92"/><path class="cls-2" d="M149.41,41.82c.95,0,1.9.35,2.65,1.06l46.05,43.7c1.54,1.46,1.61,3.9.14,5.44-.76.8-1.77,1.2-2.79,1.2-.95,0-1.9-.35-2.65-1.06l-46.05-43.7c-1.54-1.46-1.61-3.9-.14-5.44.76-.8,1.78-1.2,2.79-1.2M149.41,31.82h0c-3.78,0-7.44,1.57-10.04,4.31-5.26,5.54-5.03,14.33.51,19.58l46.05,43.7c2.58,2.45,5.97,3.8,9.53,3.8,3.78,0,7.44-1.57,10.05-4.32,5.26-5.54,5.03-14.32-.51-19.58l-46.05-43.7c-2.59-2.45-5.97-3.8-9.53-3.8h0Z"/><polygon class="cls-2" points="78.64 123 99.66 102.04 92.6 94.96 71.58 115.92 78.64 123 78.64 123"/><path class="cls-2" d="M92.6,91.11c.99,0,1.97.38,2.73,1.13,1.5,1.51,1.5,3.94,0,5.44l-21.02,20.97c-.75.75-1.74,1.12-2.72,1.12s-1.97-.38-2.73-1.13c-1.5-1.51-1.5-3.94,0-5.44l21.02-20.97c.75-.75,1.74-1.12,2.72-1.12M92.6,81.11h0c-3.69,0-7.17,1.44-9.78,4.04l-21.02,20.97c-5.41,5.39-5.42,14.18-.02,19.59,2.62,2.62,6.1,4.07,9.81,4.07s7.17-1.44,9.78-4.04l21.02-20.97c5.41-5.39,5.42-14.18.02-19.59-2.62-2.62-6.1-4.07-9.81-4.07h0Z"/><polygon class="cls-2" points="132.42 177.02 153.43 156.06 146.37 148.98 125.35 169.94 132.42 177.02 132.42 177.02"/><path class="cls-2" d="M146.37,145.13c.99,0,1.97.38,2.73,1.13,1.5,1.51,1.5,3.94,0,5.44l-21.02,20.97c-.75.75-1.74,1.12-2.72,1.12s-1.97-.38-2.73-1.13c-1.5-1.51-1.5-3.94,0-5.44l21.02-20.97c.75-.75,1.74-1.12,2.72-1.12M146.37,135.13c-3.69,0-7.17,1.44-9.78,4.04l-21.02,20.97c-5.41,5.39-5.42,14.18-.02,19.59,2.62,2.62,6.1,4.07,9.81,4.07s7.17-1.44,9.78-4.04l21.02-20.97c5.41-5.39,5.42-14.18.02-19.59-2.62-2.62-6.1-4.07-9.81-4.07h0Z"/><path class="cls-1" d="M60.38,181.48l18.85,19.16s-19.8,27.09-55.49,20.25c-6.73-36.26,18.18-58.15,18.18-58.15l18.85,19.16"/><polygon class="cls-1" points="51.3 137.33 41.93 162.73 79.24 200.63 106.91 189.79 51.3 137.33"/><path class="cls-1" d="M93.22,93.81s33.48-58.32,112.14-62.4c1.81-.09,3.33,1.4,3.29,3.25-1.77,74.71-61.58,113.86-61.58,113.86l.39,40.88-25.88,26.3L28.66,121.46l27.22-27.65h37.35"/><line class="cls-1" x1="83.78" y1="159.63" x2="118.82" y2="124.03"/><ellipse class="cls-1" cx="140.83" cy="100.15" rx="19.14" ry="19.45"/><line class="cls-1" x1="149.41" y1="45.67" x2="195.46" y2="89.37"/><line class="cls-1" x1="71.58" y1="115.92" x2="92.6" y2="94.96"/><line class="cls-1" x1="125.35" y1="169.94" x2="146.37" y2="148.98"/><path class="cls-3" d="M50.24,173.8l-12.67,29.03c-1.16,2.67,1.68,5.31,4.25,3.96l27.6-14.46-19.18-18.52Z" /></svg>