<?xml version="1.0" encoding="UTF-8"?><svg id="Layer_1" xmlns="http://www.w3.org/2000/svg" viewBox="0 0 269.47 225.58"><defs><style>.cls-1,.cls-2{fill:#ffcbda;}.cls-1,.cls-3{stroke:#ff0096;stroke-linecap:round;stroke-linejoin:round;stroke-width:7px;}.cls-3{fill:#ff0096;}</style></defs><path class="cls-2" d="M255.16,75.01c-9.16-12.94-21.26-27.93-29.26-37.85l-.63-.78C207.86,14.82,194.68,1.73,158.37,1.73c-10.8,0-23.65,1.17-39.29,3.57-13.67,2.1-24.32,6.9-32.1,10.4-2.72,1.22-5.79,2.61-7.03,2.89C45.83,26.51,23.72,40.34,12.37,60.87,1.52,80.48,1.69,104.03,2.7,124.57c1.02,20.7,7.97,35.78,20.65,44.8,8.06,5.73,17.92,8.64,29.3,8.64,3.05,0,5.86-.22,8.29-.52,6.55,12.65,15.3,20.92,26.07,24.6,4.23,1.45,8.76,2.18,13.47,2.18,4.75,0,9.74-.73,15.1-2.22,4.56,16.37,12.96,25.27,24.09,25.27s17.83-9.26,23.31-17.43c4.9-7.31,9.14-13.62,15.98-14.92,5.47-1.04,10.96-1.56,16.31-1.56,2.77,0,5.48.14,8.04.42,3.52.38,5.62.91,5.8.95.93.25,1.88.38,2.85.38.66,0,1.32-.06,1.97-.18,3.69.5,7.1.75,10.38.75,13.65,0,28.1-11.53,37.7-30.08,5.68-10.97,21.96-49.93-6.83-90.63Z"/><path class="cls-1" d="M201.78,93.14s-41.84,38.7-80.89,31.77c-36.09-6.4-65.64,13.44-51.82,44.11,23.95,53.18,73.49,2.31,90.61,2.31s42.73,13.42,64.63,13.42,56.13-54.96,21.9-103.36c-9.2-13.01-21.71-28.46-29.47-38.08-21.13-26.17-33.31-36.74-95.95-27.11-18.5,2.84-31.59,11.58-38.31,13.14C15.19,44.94,11.57,80.71,13.7,124.06c2.75,55.89,52.76,41.22,52.76,41.22"/><path class="cls-1" d="M39.4,112.99s.31,26.4,27.35,28.29"/><path class="cls-1" d="M72.41,103.65s-13.83-16.75-11.32-37.81"/><path class="cls-1" d="M106.67,68.67s-18.8,36.71,4.43,55.13"/><path class="cls-1" d="M139.67,91.93s16.97-7.54,13.2-19.8-12.03-18.55-6.33-33.63"/><path class="cls-1" d="M217.94,76.22s22.63,10.37,11,38.66"/><path class="cls-1" d="M217.94,165.8s15.09-.63,19.02-19.02"/><path class="cls-3" d="M211.99,184.19s-2.7-.75-7.48-1.27c-6.18-.67-15.84-.96-27.59,1.27-20.84,3.96-24.6,32.16-37.24,32.16s-15.78-28.97-15.78-28.97l35.78-16.04"/><line class="cls-1" x1="135.26" y1="165.8" x2="135.26" y2="154.16"/><path class="cls-1" d="M200.04,114.88s-5.54,3.91,3.44,12.89c9.24,9.24-33.63,24.52-54.06,26.09s-17.92-1.57-35.52-1.57-17.6,13.52-17.6,13.52"/><path class="cls-1" d="M29.29,113.88s10.04,3.87,15.86-7.23"/><path class="cls-1" d="M82.45,103.55s-10.04-3.87-15.86,7.23"/><path class="cls-1" d="M142.8,101.75s-1.14-10.7-13.67-10.81"/><path class="cls-1" d="M112.13,74.08s-1.14-10.7-13.67-10.81"/><path class="cls-1" d="M156.17,133.36s9.07,4.88,4.24,18.82"/><path class="cls-1" d="M190.27,67.21c2.43-14.8,26.68-22.39,26.68-22.39"/><path class="cls-2" d="M252.9,75.01c-9.16-12.94-21.26-27.93-29.26-37.85l-.63-.78C205.6,14.82,192.42,1.73,156.11,1.73c-10.8,0-23.65,1.17-39.29,3.57-13.67,2.1-24.32,6.9-32.1,10.4-2.72,1.22-5.79,2.61-7.03,2.89C43.57,26.51,21.46,40.34,10.11,60.87-.74,80.48-.57,104.03.44,124.57c1.02,20.7,7.97,35.78,20.65,44.8,8.06,5.73,17.92,8.64,29.3,8.64,3.05,0,5.86-.22,8.29-.52,6.55,12.65,15.3,20.92,26.07,24.6,4.23,1.45,8.76,2.18,13.47,2.18,4.75,0,9.74-.73,15.1-2.22,4.56,16.37,12.96,25.27,24.09,25.27s17.83-9.26,23.31-17.43c4.9-7.31,9.14-13.62,15.98-14.92,5.47-1.04,10.96-1.56,16.31-1.56,2.77,0,5.48.14,8.04.42,3.52.38,5.62.91,5.8.95.93.25,1.88.38,2.85.38.66,0,1.32-.06,1.97-.18,3.69.5,7.1.75,10.38.75,13.65,0,28.1-11.53,37.7-30.08,5.68-10.97,21.96-49.93-6.83-90.63Z"/><path class="cls-1" d="M199.52,93.14s-41.84,38.7-80.89,31.77c-36.09-6.4-65.64,13.44-51.82,44.11,23.95,53.18,73.49,2.31,90.61,2.31s42.73,13.42,64.63,13.42,56.13-54.96,21.9-103.36c-9.2-13.01-21.71-28.46-29.47-38.08-21.13-26.17-33.31-36.74-95.95-27.11-18.5,2.84-31.59,11.58-38.31,13.14C12.93,44.94,9.31,80.71,11.44,124.06c2.75,55.89,52.76,41.22,52.76,41.22"/><path class="cls-1" d="M37.14,112.99s.31,26.4,27.35,28.29"/><path class="cls-1" d="M70.15,103.65s-13.83-16.75-11.32-37.81"/><path class="cls-1" d="M104.41,68.67s-18.8,36.71,4.43,55.13"/><path class="cls-1" d="M137.41,91.93s16.97-7.54,13.2-19.8-12.03-18.55-6.33-33.63"/><path class="cls-1" d="M215.68,76.22s22.63,10.37,11,38.66"/><path class="cls-1" d="M215.68,165.8s15.09-.63,19.02-19.02"/><path class="cls-3" d="M209.73,184.19s-2.7-.75-7.48-1.27c-6.18-.67-15.84-.96-27.59,1.27-20.84,3.96-24.6,32.16-37.24,32.16s-15.78-28.97-15.78-28.97l35.78-16.04"/><line class="cls-1" x1="133" y1="165.8" x2="133" y2="154.16"/><path class="cls-1" d="M197.78,114.88s-5.54,3.91,3.44,12.89c9.24,9.24-33.63,24.52-54.06,26.09s-17.92-1.57-35.52-1.57-17.6,13.52-17.6,13.52"/><path class="cls-1" d="M27.03,113.88s10.04,3.87,15.86-7.23"/><path class="cls-1" d="M80.2,103.55s-10.04-3.87-15.86,7.23"/><path class="cls-1" d="M140.55,101.75s-1.14-10.7-13.67-10.81"/><path class="cls-1" d="M109.87,74.08s-1.14-10.7-13.67-10.81"/><path class="cls-1" d="M153.91,133.36s9.07,4.88,4.24,18.82"/><path class="cls-1" d="M188.01,67.21c2.43-14.8,26.68-22.39,26.68-22.39"/></svg>