<?xml version="1.0" encoding="UTF-8"?><svg id="Layer_1" xmlns="http://www.w3.org/2000/svg" viewBox="0 0 180.62 236.77"><defs><style>.cls-1{stroke:#ff0096;stroke-linecap:round;stroke-linejoin:round;stroke-width:8px;}.cls-1,.cls-2{fill:#ffcbda;}</style></defs><path class="cls-2" d="M106.87,17.07c3.07,0,5.77.9,7.84,2.42,6.06,4.44,9.89,18.18,2.38,30.46-2.38,3.89-5.59,8.71-9.31,14.28-4.04,6.06-8.68,13-13.23,20.28,1.12-.1,2.22-.15,3.29-.15,5.98,0,11.29,1.54,15.62,4.58,5.28,3.7,8.93,9.44,10.66,16.72,1.42-.23,2.83-.34,4.24-.34,5.71,0,11.28,1.84,15.96,5.38,5.55,4.19,9.2,10.3,9.87,16.32,7.36,3.6,12.14,9.92,13.86,18.41,1.82,8.96-.16,17.92-1.51,22.46-3.83,12.93-14.43,43.45-30.02,47.67-1.2.32-2.38.67-3.56,1.02-5.13,1.52-10.54,3.12-18.37,3.12h0c-11.75,0-28.95-3.59-58.86-16.45-18.62-8-30.79-19.31-36.18-33.62-5.72-15.19-3.75-33.13,5.86-53.32,3.3-6.93,12.8-21.13,18.57-29.56-.85-10.84-3.83-31.75-9.64-39.77-2.63-3.64-10.64-14.7-.89-24.45,3.55-3.55,8.1-5.32,12.65-5.32s9.1,1.77,12.65,5.32c4.38,4.38,12.86,15.06,17.01,20.37,5.15-6.69,11.21-14.3,14.84-17.93,5.66-5.66,11.42-7.91,16.27-7.91M75.77,47.81s0,0,0,0h0s0,0,0,0h0s0,0,0,0h0M106.87,8.07s0,0,0,0c-5.51,0-13.92,1.83-22.64,10.55-2.07,2.07-4.92,5.35-8.52,9.79-3.95-4.86-7.89-9.52-10.6-12.23-5.13-5.13-11.88-7.95-19.01-7.95s-13.88,2.82-19.01,7.95c-6.36,6.36-8.7,14.56-6.56,23.07,1.53,6.12,4.9,10.78,6.52,13.02,2.68,3.71,6.16,16.48,7.68,32.08-6.58,9.69-14.33,21.54-17.45,28.1-10.71,22.48-12.78,42.79-6.16,60.36,6.29,16.69,20.1,29.71,41.05,38.71,27.28,11.72,47.11,17.18,62.41,17.18,9.14,0,15.4-1.85,20.93-3.48l.1-.03c1.13-.33,2.2-.65,3.26-.94,18.28-4.95,29.83-31.99,36.3-53.8,1.58-5.34,3.91-15.93,1.7-26.81-1.94-9.53-7.09-17.33-14.7-22.39-1.96-6.77-6.4-13.17-12.43-17.73-5.66-4.28-12.28-6.73-19.25-7.14-2.67-6.14-6.69-11.18-11.87-14.81-2.63-1.85-5.55-3.3-8.69-4.33,1.84-2.79,3.63-5.47,5.32-8.01,3.77-5.65,7.03-10.53,9.5-14.58,4.47-7.31,6.3-15.88,5.14-24.12-1.1-7.84-4.7-14.51-9.87-18.3-3.72-2.72-8.27-4.17-13.16-4.17h0Z"/><path class="cls-1" d="M75.77,47.81s-13.4-17.41-19.14-23.15-14.91-6.15-21.06,0c-6.5,6.5-3.76,13.73,1.2,20.58,8.14,11.25,10.27,42.35,10.27,42.35"/><path class="cls-1" d="M69.6,135.72c0-24.62,33.29-68.29,44.93-87.32,6.47-10.57,3.41-22.82-1.59-26.49-3.75-2.75-11.65-3.38-20.23,5.19-11.77,11.77-57,74.53-64.6,90.5-7.61,15.97-24.72,59.91,28.8,82.9,53.52,22.99,64.78,15.97,78.84,12.17,14.05-3.8,24.33-33.46,27.94-45.63,3.61-12.17,4.37-31.18-12.36-38.03,0-11.41-13.45-24.34-29.54-19.77-2.39-15.4-13.33-24.63-31-21.16"/><path class="cls-1" d="M100.35,151.73c0-11.9,21.42-42.49,21.42-42.49"/><path class="cls-1" d="M132.02,161.31c0-9.4,19.3-32.29,19.3-32.29"/><path class="cls-2" d="M104.61,17.07c3.07,0,5.77.9,7.84,2.42,6.06,4.44,9.89,18.18,2.38,30.46-2.38,3.89-5.59,8.71-9.31,14.28-4.04,6.06-8.68,13-13.23,20.28,1.12-.1,2.22-.15,3.29-.15,5.98,0,11.29,1.54,15.62,4.58,5.28,3.7,8.93,9.44,10.66,16.72,1.42-.23,2.83-.34,4.24-.34,5.71,0,11.28,1.84,15.96,5.38,5.55,4.19,9.2,10.3,9.87,16.32,7.36,3.6,12.14,9.92,13.86,18.41,1.82,8.96-.16,17.92-1.51,22.46-3.83,12.93-14.43,43.45-30.02,47.67-1.2.32-2.38.67-3.56,1.02-5.13,1.52-10.54,3.12-18.37,3.12h0c-11.75,0-28.95-3.59-58.86-16.45-18.62-8-30.79-19.31-36.18-33.62-5.72-15.19-3.75-33.13,5.86-53.32,3.3-6.93,12.8-21.13,18.57-29.56-.85-10.84-3.83-31.75-9.64-39.77-2.63-3.64-10.64-14.7-.89-24.45,3.55-3.55,8.1-5.32,12.65-5.32s9.1,1.77,12.65,5.32c4.38,4.38,12.86,15.06,17.01,20.37,5.15-6.69,11.21-14.3,14.84-17.93,5.66-5.66,11.42-7.91,16.27-7.91M73.51,47.81s0,0,0,0h0s0,0,0,0h0s0,0,0,0h0M104.61,8.07s0,0,0,0c-5.51,0-13.92,1.83-22.64,10.55-2.07,2.07-4.92,5.35-8.52,9.79-3.95-4.86-7.89-9.52-10.6-12.23-5.13-5.13-11.88-7.95-19.01-7.95s-13.88,2.82-19.01,7.95c-6.36,6.36-8.7,14.56-6.56,23.07,1.53,6.12,4.9,10.78,6.52,13.02,2.68,3.71,6.16,16.48,7.68,32.08-6.58,9.69-14.33,21.54-17.45,28.1-10.71,22.48-12.78,42.79-6.16,60.36,6.29,16.69,20.1,29.71,41.05,38.71,27.28,11.72,47.11,17.18,62.41,17.18,9.14,0,15.4-1.85,20.93-3.48l.1-.03c1.13-.33,2.2-.65,3.26-.94,18.28-4.95,29.83-31.99,36.3-53.8,1.58-5.34,3.91-15.93,1.7-26.81-1.94-9.53-7.09-17.33-14.7-22.39-1.96-6.77-6.4-13.17-12.43-17.73-5.66-4.28-12.28-6.73-19.25-7.14-2.67-6.14-6.69-11.18-11.87-14.81-2.63-1.85-5.55-3.3-8.69-4.33,1.84-2.79,3.63-5.47,5.32-8.01,3.77-5.65,7.03-10.53,9.5-14.58,4.47-7.31,6.3-15.88,5.14-24.12-1.1-7.84-4.7-14.51-9.87-18.3-3.72-2.72-8.27-4.17-13.16-4.17h0Z"/><path class="cls-1" d="M73.51,47.81s-13.4-17.41-19.14-23.15-14.91-6.15-21.06,0c-6.5,6.5-3.76,13.73,1.2,20.58,8.14,11.25,10.27,42.35,10.27,42.35"/><path class="cls-1" d="M67.34,135.72c0-24.62,33.29-68.29,44.93-87.32,6.47-10.57,3.41-22.82-1.59-26.49-3.75-2.75-11.65-3.38-20.23,5.19-11.77,11.77-57,74.53-64.6,90.5-7.61,15.97-24.72,59.91,28.8,82.9,53.52,22.99,64.78,15.97,78.84,12.17,14.05-3.8,24.33-33.46,27.94-45.63,3.61-12.17,4.37-31.18-12.36-38.03,0-11.41-13.45-24.34-29.54-19.77-2.39-15.4-13.33-24.63-31-21.16"/><path class="cls-1" d="M98.09,151.73c0-11.9,21.42-42.49,21.42-42.49"/><path class="cls-1" d="M129.76,161.31c0-9.4,19.3-32.29,19.3-32.29"/></svg>