<?xml version="1.0" encoding="UTF-8"?><svg id="Layer_1" xmlns="http://www.w3.org/2000/svg" viewBox="0 0 255.76 243.96"><defs><style>.cls-1,.cls-2,.cls-3{stroke-linecap:round;stroke-linejoin:round;stroke-width:8px;}.cls-1,.cls-4{fill:#ffcbda;}.cls-1,.cls-3{stroke:#ff0096;}.cls-2{stroke:#000;}.cls-2,.cls-3{fill:none;}</style></defs><path class="cls-2" d="M196.18,126.93s33.71-1.23,42.82,7.87"/><path class="cls-4" d="M144.5,11.73c5.37,0,11.55,2.97,14.74,6.5,3.91,4.32,4.7,9.82,2.21,15.48-8.99,20.46-17.18,37.18-21.84,46.4.74-.1,1.5-.15,2.27-.15,3.17,0,6.54.94,9.42,3.83.09.09.17.18.25.28,1.79,2.23,4.54,4.93,7.44,7.78,6.25,6.14,12.22,12.01,13.95,17.55,1.75.16,3.5.79,5.13,1.88,3.14,2.09,5.67,5.75,6.86,9.67,1.69-.56,3.9-1.35,5.95-2.08,15.22-5.42,30.59-10.47,41.63-10.47,4.41,0,8.13.81,10.87,2.72,2.07,1.44,4.55,4.23,4.61,9.3.12,11.45-18.26,20.54-44.25,32.13-10.82,4.83-22.02,9.83-25.45,13.33-.94.94-1.15,3.31-1.38,5.82-.6,6.61-1.49,16.59-16.11,22.58-15.66,6.42-22.84,12.18-24.51,13.64l-10.83,22.25c-1.6,3.29-4.85,5.4-8.47,5.5-.73.02-1.45.03-2.18.03h0c-27.19,0-54.19-14.55-66.24-35.91-1.56-2.77-1.57-6.25-.02-9.07l8.34-15.19c-17.3-26.07-20.55-39.32-18.88-74.95-.88-1.35-4.01-4.63-6.56-7.31-11.44-11.97-20.76-22.57-18.96-31.04,2.13-10,6.64-15.91,13.41-17.55,1.21-.29,2.46-.43,3.73-.43,14.03,0,31.05,16.77,37,23.99,4.74,4.92,10.11,20.1,12.95,28.94,6.57-8.19,19.62-25,28.54-40.04,2.55-4.31,4.94-8.5,7.25-12.56,9.75-17.12,16.79-29.49,25.47-32.31,1.14-.37,2.37-.54,3.65-.54M144.5,1.73s0,0,0,0c-2.37,0-4.64.35-6.74,1.03-12.37,4.02-20.21,17.8-31.07,36.87-2.29,4.02-4.65,8.17-7.17,12.41-4.89,8.24-11.09,17.07-16.75,24.68-4.33-10.24-7.28-13.68-8.67-15.14-3.6-4.31-9.85-10.7-16.92-16.03-9.94-7.5-19.21-11.31-27.55-11.31-2.09,0-4.14.24-6.09.71-7.44,1.81-17.1,7.65-20.83,25.19-2.82,13.28,7.6,25.47,21.52,40.03.98,1.03,2.45,2.56,3.64,3.85-1.24,32.83,2.36,48.11,17.4,71.92l-5.46,9.95c-3.2,5.83-3.17,13.03.07,18.79,13.83,24.52,43.95,41,74.95,41,.83,0,1.66-.01,2.47-.04,7.35-.21,13.93-4.47,17.17-11.12l9.85-20.23c2.65-1.97,8.99-6.15,20.3-10.79,20.24-8.29,21.61-23.58,22.28-30.93.02-.25.05-.53.08-.82,4.24-2.67,14.42-7.22,20.86-10.09,12.04-5.37,24.52-11.1,33.34-16.91,5.01-3.3,8.75-6.53,11.44-9.9,3.63-4.55,5.45-9.45,5.4-14.57-.08-7.28-3.23-13.45-8.88-17.4-4.3-3-9.88-4.52-16.59-4.52-12.31,0-27.8,4.97-42.83,10.29-1.75-2.26-3.8-4.22-6.08-5.73-1.12-.75-2.3-1.39-3.52-1.91-3.28-5.7-8.57-10.9-14.09-16.33-2.58-2.53-5.24-5.15-6.66-6.92-.31-.38-.63-.74-.96-1.07-1.32-1.32-2.75-2.45-4.27-3.39,4.67-9.59,10.39-21.74,16.48-35.61,4.04-9.21,2.56-19.01-3.96-26.21-5.3-5.85-14.2-9.79-22.15-9.79h0Z"/><path class="cls-1" d="M51.65,192.4l9.36-17.05c-18.32-27.25-21.14-40.08-19.45-75.29,0-3.76-28.02-25.9-25.63-37.11,7.14-33.59,39.73-2.61,48.1,7.62,6.02,6.01,14.14,33.88,14.14,33.88,0,0,20.38-24.3,32.97-45.53s21.51-40.31,30.8-43.33c5.97-1.94,21.76,4.3,16.31,16.71-13.9,31.64-25.72,53.95-25.72,53.95,0,0,10.04-6.27,16.31,0,6.26,7.79,22.2,19.75,21.06,27,6.13-2.24,11.98,5.54,12.27,11.9,2.02,1.53,62.11-26.98,62.35-4.71.17,16.11-58.35,32.43-68.7,42.98-5.33,5.33,2.82,19.76-16.31,27.61s-26.04,14.74-26.04,14.74l-11.13,22.85c-1.02,2.09-3.1,3.47-5.42,3.54-24.39.7-52.45-11.38-65.27-34.1-.99-1.75-.97-3.9,0-5.67Z"/><line class="cls-1" x1="123.29" y1="103.33" x2="132.53" y2="86.26"/><path class="cls-1" d="M134.83,108.78s7.44,12.89,3.99,16.34c-15.48,20.78-15.65,44.98,19.25,23.24,12.35-8.35,11.83-35.11,11.83-35.11"/><path class="cls-3" d="M182.17,125.15s.02,8.11-.62,14.57c-.41,4.11-2.48,7.88-5.69,10.48-8.49,6.89-23.11,19.71-28.01,3.84"/><path class="cls-1" d="M89.8,136.74s17.07,16.34,17.07,38.86"/><path class="cls-2" d="M193.92,126.93s33.71-1.23,42.82,7.87"/><path class="cls-4" d="M142.25,11.73c5.37,0,11.55,2.97,14.74,6.5,3.91,4.32,4.7,9.82,2.21,15.48-8.99,20.46-17.18,37.18-21.84,46.4.74-.1,1.5-.15,2.27-.15,3.17,0,6.54.94,9.42,3.83.09.09.17.18.25.28,1.79,2.23,4.54,4.93,7.44,7.78,6.25,6.14,12.22,12.01,13.95,17.55,1.75.16,3.5.79,5.13,1.88,3.14,2.09,5.67,5.75,6.86,9.67,1.69-.56,3.9-1.35,5.95-2.08,15.22-5.42,30.59-10.47,41.63-10.47,4.41,0,8.13.81,10.87,2.72,2.07,1.44,4.55,4.23,4.61,9.3.12,11.45-18.26,20.54-44.25,32.13-10.82,4.83-22.02,9.83-25.45,13.33-.94.94-1.15,3.31-1.38,5.82-.6,6.61-1.49,16.59-16.11,22.58-15.66,6.42-22.84,12.18-24.51,13.64l-10.83,22.25c-1.6,3.29-4.85,5.4-8.47,5.5-.73.02-1.45.03-2.18.03h0c-27.19,0-54.19-14.55-66.24-35.91-1.56-2.77-1.57-6.25-.02-9.07l8.34-15.19c-17.3-26.07-20.55-39.32-18.88-74.95-.88-1.35-4.01-4.63-6.56-7.31-11.44-11.97-20.76-22.57-18.96-31.04,2.13-10,6.64-15.91,13.41-17.55,1.21-.29,2.46-.43,3.73-.43,14.03,0,31.05,16.77,37,23.99,4.74,4.92,10.11,20.1,12.95,28.94,6.57-8.19,19.62-25,28.54-40.04,2.55-4.31,4.94-8.5,7.25-12.56,9.75-17.12,16.79-29.49,25.47-32.31,1.14-.37,2.37-.54,3.65-.54M142.25,1.73s0,0,0,0c-2.37,0-4.64.35-6.74,1.03-12.37,4.02-20.21,17.8-31.07,36.87-2.29,4.02-4.65,8.17-7.17,12.41-4.89,8.24-11.09,17.07-16.75,24.68-4.33-10.24-7.28-13.68-8.67-15.14-3.6-4.31-9.85-10.7-16.92-16.03-9.94-7.5-19.21-11.31-27.55-11.31-2.09,0-4.14.24-6.09.71-7.44,1.81-17.1,7.65-20.83,25.19-2.82,13.28,7.6,25.47,21.52,40.03.98,1.03,2.45,2.56,3.64,3.85-1.24,32.83,2.36,48.11,17.4,71.92l-5.46,9.95c-3.2,5.83-3.17,13.03.07,18.79,13.83,24.52,43.95,41,74.95,41,.83,0,1.66-.01,2.47-.04,7.35-.21,13.93-4.47,17.17-11.12l9.85-20.23c2.65-1.97,8.99-6.15,20.3-10.79,20.24-8.29,21.61-23.58,22.28-30.93.02-.25.05-.53.08-.82,4.24-2.67,14.42-7.22,20.86-10.09,12.04-5.37,24.52-11.1,33.34-16.91,5.01-3.3,8.75-6.53,11.44-9.9,3.63-4.55,5.45-9.45,5.4-14.57-.08-7.28-3.23-13.45-8.88-17.4-4.3-3-9.88-4.52-16.59-4.52-12.31,0-27.8,4.97-42.83,10.29-1.75-2.26-3.8-4.22-6.08-5.73-1.12-.75-2.3-1.39-3.52-1.91-3.28-5.7-8.57-10.9-14.09-16.33-2.58-2.53-5.24-5.15-6.66-6.92-.31-.38-.63-.74-.96-1.07-1.32-1.32-2.75-2.45-4.27-3.39,4.67-9.59,10.39-21.74,16.48-35.61,4.04-9.21,2.56-19.01-3.96-26.21-5.3-5.85-14.2-9.79-22.15-9.79h0Z"/><path class="cls-1" d="M49.39,192.4l9.36-17.05c-18.32-27.25-21.14-40.08-19.45-75.29,0-3.76-28.02-25.9-25.63-37.11,7.14-33.59,39.73-2.61,48.1,7.62,6.02,6.01,14.14,33.88,14.14,33.88,0,0,20.38-24.3,32.97-45.53s21.51-40.31,30.8-43.33c5.97-1.94,21.76,4.3,16.31,16.71-13.9,31.64-25.72,53.95-25.72,53.95,0,0,10.04-6.27,16.31,0,6.26,7.79,22.2,19.75,21.06,27,6.13-2.24,11.98,5.54,12.27,11.9,2.02,1.53,62.11-26.98,62.35-4.71.17,16.11-58.35,32.43-68.7,42.98-5.33,5.33,2.82,19.76-16.31,27.61s-26.04,14.74-26.04,14.74l-11.13,22.85c-1.02,2.09-3.1,3.47-5.42,3.54-24.39.7-52.45-11.38-65.27-34.1-.99-1.75-.97-3.9,0-5.67Z"/><line class="cls-1" x1="121.03" y1="103.33" x2="130.27" y2="86.26"/><path class="cls-1" d="M132.57,108.78s7.44,12.89,3.99,16.34c-15.48,20.78-15.65,44.98,19.25,23.24,12.35-8.35,11.83-35.11,11.83-35.11"/><path class="cls-3" d="M179.91,125.15s.02,8.11-.62,14.57c-.41,4.11-2.48,7.88-5.69,10.48-8.49,6.89-23.11,19.71-28.01,3.84"/><path class="cls-1" d="M87.54,136.74s17.07,16.34,17.07,38.86"/></svg>