<?xml version="1.0" encoding="UTF-8"?>
<svg id="Layer_1" data-name="Layer 1" xmlns="http://www.w3.org/2000/svg" xmlns:xlink="http://www.w3.org/1999/xlink" version="1.1" viewBox="0 0 1739.7 689.7">
  <defs>
    <style>
      .cls-1 {
        clip-path: url(#clippath);
      }

      .cls-2 {
        fill: none;
      }

      .cls-2, .cls-3, .cls-4 {
        stroke-width: 0px;
      }

      .cls-3 {
        fill: #000;
      }

      .cls-4 {
        fill: #ffcbda;
      }
    </style>
    <clipPath id="clippath">
      <rect class="cls-2" x="1392.9" y="130.8" width="259.6" height="136.1"/>
    </clipPath>
  </defs>
  <g>
    <rect class="cls-4" x="29" y="29" width="1681.8" height="631.8" rx="34.2" ry="34.2"/>
    <path class="cls-3" d="M1676.6,38.6c13.5,0,24.5,11,24.5,24.5v563.4c0,13.5-11,24.5-24.5,24.5H63.2c-13.5,0-24.5-11-24.5-24.5V63.2c0-13.5,11-24.5,24.5-24.5h1613.4M1676.6,19.3H63.2c-24.2,0-43.9,19.6-43.9,43.9v563.4c0,24.2,19.6,43.9,43.9,43.9h1613.4c24.2,0,43.9-19.6,43.9-43.9V63.2c0-24.2-19.6-43.9-43.9-43.9h0Z"/>
    <path class="cls-4" d="M1676.6,19.3c24.2,0,43.9,19.6,43.9,43.9v563.4c0,24.2-19.6,43.9-43.9,43.9H63.2c-24.2,0-43.9-19.6-43.9-43.9V63.2c0-24.2,19.6-43.9,43.9-43.9h1613.4M1676.6,0H63.2C28.3,0,0,28.3,0,63.2v563.4c0,34.8,28.3,63.2,63.2,63.2h1613.4c34.8,0,63.2-28.3,63.2-63.2V63.2c0-34.8-28.3-63.2-63.2-63.2h0Z"/>
  </g>
  <g class="cls-1">
    <path class="cls-3" d="M1494.3,158.7c1.1-2.2,3.9-5.1,9.2-5.7,5.3-.6,6.4,2.7,6,4.1-.3,1.4-9.1,21.7-10.3,24.6-1.2,3-5.3,2.5-6.5.9-1-1.3-3.2-3.9-4-5.2-.8-1.3-.9-2.3-.2-4.1,0,0,4.6-12.4,5.7-14.6ZM1648.2,196.8c-24.6,1.1-49,3.9-73.2,8.4-13.6,24-34.7,39.5-49,38.9-13.1-.5-17.8-10.3-18.2-22.3-16.5,5.2-26.4,9.3-27.6,9.8-3,1.3-4.4.4-5.7-.9-.2-.2-4.4-5.7-4.5-5.9-.6-.9-1.2-1.8-.4-4,1.3-3.6,7.1-17.8,7.1-17.8-5.5.5-10.9,1.3-16.2,2.3-7.9,19.9-18.9,47.7-19.6,49.5-1.2,3.2-5.4,3.3-7.1.9-.6-.8-4.7-6.3-5.3-7.1-.8-1.1-1-2.1-.5-3.8.5-1.7,7.3-18.9,13.5-34.8-7.1,2.1-13.9,4.5-20,7-4.4,11.2-9.7,24-10.4,25.6-1.2,2.7-4.8,3.3-6.8.8-.3-.4-3-3.9-3.3-4.3-1.3-1.7-1.4-2.6-.9-4.2.3-.8,1.9-4.8,3.9-9.8-.6.3-1.1.6-1.6.9-3.8,1.5-7.9-3.8-8.9-5.1-.5-.6-.7-1.4-.6-2.2,0-.8.5-1.5,1-2,.5-.5,6.8-5,17.5-10.2.7-1.8,1.3-3.5,1.8-4.8,6.1-16.5,14.1-36,15.2-38.5,1.1-2.5,3.3-5.2,9-5.9,5.7-.6,5.9,2.6,5.4,4.2-.4,1.4-9.8,24.7-14.8,37.9,6.5-2.4,13.1-4.3,19.9-5.9.7-1.8,1.3-3.4,1.9-4.9,7.6-19.8,16.7-42.8,18-45.2,1.3-2.4,4.1-4.9,10.1-5.6,6-.7,7.4,2.3,7.1,3.8-.3,1.5-9.4,25.4-16.8,44.1-.3.6-.9,2.2-1.8,4.5,4.3-.5,8.7-.9,13.3-1,.8,0,1.6,0,2.4.3,2.1.8,7.3,2.7,9.5,3.5,1.7.6,2.8,2.5,2,4.6-.8,2.1-6.4,16.2-6.4,16.2,0,0,7.8-3,21.8-6.9,1.6-8.7,4.4-17.1,7.1-23,21.9-48.2,44.3-52.8,52.5-52.9,18.8-.2,26.1,27.8,12.7,61.3,19.4-2.6,38.9-4.1,58.5-4.7.7.1.8.5.8.7,0,.3,0,1.6-1.1,1.6-20.7.8-28.9,2.5-29.9,2.7-1.5.4-1.3,2.1,1.1,1.8,12.2-1.4,24.4-2.1,36.6-2.2.3,0,2.5-.1,4,1.5.7.7,3.1,2.9-1.9,3.2-.4,0-.8,0-1.1,0,0,0,0,0-.1,0h0ZM1553.5,209.5c-11.7,2.6-22.3,5.4-31.5,8,0,7,2.5,11,7.7,11,6.6,0,15.3-6.5,23.8-19ZM1563.5,147.1c-12.3.4-26.8,22.6-35.2,44.4-1.5,3.9-2.8,7.6-3.8,11,10.5-2.6,23.1-5.2,37.3-7.6,1.6-3.2,3.1-6.6,4.6-10.3,8.7-21.2,7.5-37.9-2.9-37.5Z"/>
  </g>
  <g>
    <path class="cls-3" d="M234.1,317.4c-48.2,0-83-38.1-83-95.1s34.8-95.1,83-95.1,72.4,24.5,79.4,68.3h-34.3c-5.4-25-20.9-38.7-45.1-38.7s-48.7,27.8-48.7,65.5,20.6,65.5,48.7,65.5,40.5-16.5,45.1-38.9h34.3c-6.2,39.7-39.2,68.5-79.4,68.5Z"/>
    <path class="cls-3" d="M428.1,132.1l55.4,180.4h-35.8l-13.1-44.1h-70.1l-13.1,44.1h-35.8l55.4-180.4h57.2ZM425.8,238.8l-26.3-87.6-26.3,87.6h52.6Z"/>
    <path class="cls-3" d="M549.9,132.1l62.6,149.7v-149.7h34.3v180.4h-50.8l-63.1-150.2v150.2h-34.3v-180.4h51.3Z"/>
    <path class="cls-3" d="M675.9,235.7h65.2v27.3h-65.2v-27.3Z"/>
    <path class="cls-3" d="M922.9,222.3c0,52.3-32.2,90.2-78.1,90.2h-75v-180.4h75c45.9,0,78.1,37.9,78.1,90.2ZM844.8,282.9c26,0,43.8-27.8,43.8-60.6s-17.5-60.6-43.8-60.6h-40.7v121.1h40.7Z"/>
    <path class="cls-3" d="M937.9,222.3c0-55.1,37.6-95.1,89.9-95.1s89.9,39.9,89.9,95.1-37.6,95.1-89.9,95.1-89.9-39.9-89.9-95.1ZM1027.8,287.8c34.3,0,55.9-27.6,55.9-65.5s-21.6-65.5-55.9-65.5-55.7,27.6-55.7,65.5,21.4,65.5,55.7,65.5Z"/>
    <path class="cls-3" d="M215.3,377.2l37.9,144.3,38.7-144.3h57v180.4h-34.3v-154.1l-40.7,154.1h-41.2l-40.2-154.1v154.1h-34.3v-180.4h57.2Z"/>
    <path class="cls-3" d="M381.4,377.2h34.3v180.4h-34.3v-180.4Z"/>
    <path class="cls-3" d="M499.1,377.2l62.6,149.7v-149.7h34.3v180.4h-50.8l-63.1-150.2v150.2h-34.3v-180.4h51.3Z"/>
    <path class="cls-3" d="M781.7,467.4c0,52.3-32.2,90.2-78.1,90.2h-75v-180.4h75c45.9,0,78.1,37.9,78.1,90.2ZM703.6,527.9c26,0,43.8-27.8,43.8-60.6s-17.5-60.6-43.8-60.6h-40.7v121.1h40.7Z"/>
    <path class="cls-3" d="M868.4,372.3c43,0,67.3,27.6,67.3,58.5h-34.3c0-14.4-10.6-31.2-33-31.2s-33,11.9-33,25,20.6,21.4,38.1,25.5c36.6,8.5,67.3,22.2,67.3,59s-29.1,53.3-70.4,53.3-75.5-30.9-75.5-63.9h34.3c-.3,16,13.7,36.6,41.2,36.6s36.1-11.6,36.1-26.8-20.6-22.9-40.2-27.6c-42.8-10-65.2-24.7-65.2-56.7s28.9-51.8,67.3-51.8Z"/>
    <path class="cls-3" d="M964.9,377.2h138.6v29.6h-104.4v47.4h94.8v26.3h-94.8v47.4h104.4v29.6h-138.6v-180.4Z"/>
    <path class="cls-3" d="M1208.3,406.8h-93.5v-29.6h150.2v29.6h-38.9c-12.6,0-19.1,10.6-19.1,31.2v119.6h-34.3v-119.6c0-18.6,11.9-28.9,35.6-31.2Z"/>
  </g>
</svg>