<?xml version="1.0" encoding="UTF-8"?>
<svg id="Layer_1" data-name="Layer 1" xmlns="http://www.w3.org/2000/svg" xmlns:xlink="http://www.w3.org/1999/xlink" version="1.1" viewBox="0 0 3454.1 462.4">
  <defs>
    <style>
      .cls-1 {
        clip-path: url(#clippath);
      }

      .cls-2 {
        fill: none;
      }

      .cls-2, .cls-3, .cls-4 {
        stroke-width: 0px;
      }

      .cls-3 {
        fill: #000;
      }

      .cls-4 {
        fill: #00dece;
      }
    </style>
    <clipPath id="clippath">
      <rect class="cls-2" x="3082.2" y="163.2" width="259.6" height="136.1"/>
    </clipPath>
  </defs>
  <g>
    <path class="cls-4" d="M62.9,28.8h3328.4c18.8,0,34,15.3,34,34v336.6c0,18.8-15.3,34-34,34H62.9c-18.8,0-34-15.3-34-34V62.9c0-18.8,15.3-34,34-34Z"/>
    <path class="cls-3" d="M3391.3,38.4c13.5,0,24.4,11,24.4,24.4v336.6c0,13.5-11,24.4-24.4,24.4H62.9c-13.5,0-24.4-11-24.4-24.4V62.9c0-13.5,11-24.4,24.4-24.4h3328.4M3391.3,19.2H62.9c-24.1,0-43.7,19.5-43.7,43.6v336.6c0,24.1,19.5,43.7,43.7,43.7h3328.4c24.1,0,43.6-19.5,43.6-43.7V62.9c0-24.1-19.5-43.6-43.6-43.6h0Z"/>
    <path class="cls-4" d="M3391.3,19.2c24.1,0,43.6,19.5,43.6,43.6v336.6c0,24.1-19.5,43.7-43.6,43.7H62.9c-24.1,0-43.7-19.5-43.7-43.7V62.9c0-24.1,19.5-43.6,43.7-43.6h3328.4M3391.3,0H62.9C28.2,0,0,28.2,0,62.9v336.6c0,34.7,28.2,62.9,62.9,62.9h3328.4c34.7,0,62.9-28.2,62.9-62.9V62.9c0-34.7-28.2-62.9-62.9-62.9h0Z"/>
  </g>
  <g class="cls-1">
    <path class="cls-3" d="M3183.5,191.1c1.1-2.2,3.9-5.1,9.2-5.7,5.3-.6,6.4,2.7,6,4.1-.3,1.4-9.1,21.7-10.3,24.6-1.2,3-5.3,2.5-6.5.9-1-1.3-3.2-3.9-4-5.2-.8-1.3-.9-2.3-.2-4.1,0,0,4.6-12.4,5.7-14.6ZM3337.4,229.1c-24.6,1.1-49,3.9-73.2,8.4-13.6,24-34.7,39.5-49,38.9-13.1-.5-17.8-10.3-18.2-22.3-16.5,5.2-26.4,9.3-27.6,9.8-3,1.3-4.4.4-5.7-.9-.2-.2-4.4-5.7-4.5-5.9-.6-.9-1.2-1.8-.4-4,1.3-3.6,7.1-17.8,7.1-17.8-5.5.5-10.9,1.3-16.2,2.3-7.9,19.9-18.9,47.7-19.6,49.5-1.2,3.2-5.4,3.3-7.1.9-.6-.8-4.7-6.3-5.3-7.1-.8-1.1-1-2.1-.5-3.8.5-1.7,7.3-18.9,13.5-34.8-7.1,2.1-13.9,4.5-20,7-4.4,11.2-9.7,24-10.4,25.6-1.2,2.7-4.8,3.3-6.8.8-.3-.4-3-3.9-3.3-4.3-1.3-1.7-1.4-2.6-.9-4.2.3-.8,1.9-4.8,3.9-9.8-.6.3-1.1.6-1.6.9-3.8,1.5-7.9-3.8-8.9-5.1-.5-.6-.7-1.4-.6-2.2,0-.8.5-1.5,1-2,.5-.5,6.8-5,17.5-10.2.7-1.8,1.3-3.5,1.8-4.8,6.1-16.5,14.1-36,15.2-38.5,1.1-2.5,3.3-5.2,9-5.9,5.7-.6,5.9,2.6,5.4,4.2-.4,1.4-9.8,24.7-14.8,37.9,6.5-2.4,13.1-4.3,19.9-5.9.7-1.8,1.3-3.4,1.9-4.9,7.6-19.8,16.7-42.8,18-45.2,1.3-2.4,4.1-4.9,10.1-5.6,6-.7,7.4,2.3,7.1,3.8-.3,1.5-9.4,25.4-16.8,44.1-.3.6-.9,2.2-1.8,4.5,4.3-.5,8.7-.9,13.3-1,.8,0,1.6,0,2.4.3,2.1.8,7.3,2.7,9.5,3.5,1.7.6,2.8,2.5,2,4.6-.8,2.1-6.4,16.2-6.4,16.2,0,0,7.8-3,21.8-6.9,1.6-8.7,4.4-17.1,7.1-23,21.9-48.2,44.3-52.8,52.5-52.9,18.8-.2,26.1,27.8,12.7,61.3,19.4-2.6,38.9-4.1,58.5-4.7.7.1.8.5.8.7,0,.3,0,1.6-1.1,1.6-20.7.8-28.9,2.5-29.9,2.7-1.5.4-1.3,2.1,1.1,1.8,12.2-1.4,24.4-2.1,36.6-2.2.3,0,2.5-.1,4,1.5.7.7,3.1,2.9-1.9,3.2-.4,0-.8,0-1.1,0,0,0,0,0-.1,0h0ZM3242.8,241.9c-11.7,2.6-22.3,5.4-31.5,8,0,7,2.5,11,7.7,11,6.6,0,15.3-6.5,23.8-19ZM3252.8,179.5c-12.3.4-26.8,22.6-35.2,44.4-1.5,3.9-2.8,7.6-3.8,11,10.5-2.6,23.1-5.2,37.3-7.6,1.6-3.2,3.1-6.6,4.6-10.3,8.7-21.2,7.5-37.9-2.9-37.5Z"/>
  </g>
  <g>
    <path class="cls-3" d="M306,231.2c0,52.3-32.2,90.2-78.1,90.2h-75v-180.4h75c45.9,0,78.1,37.9,78.1,90.2ZM228,291.8c26,0,43.8-27.8,43.8-60.6s-17.5-60.6-43.8-60.6h-40.7v121.1h40.7Z"/>
    <path class="cls-3" d="M330.2,141h138.6v29.6h-104.4v47.4h94.8v26.3h-94.8v47.4h104.4v29.6h-138.6v-180.4Z"/>
    <path class="cls-3" d="M494.8,141h138.6v29.6h-104.4v47.4h94.8v26.3h-94.8v47.4h104.4v29.6h-138.6v-180.4Z"/>
    <path class="cls-3" d="M659.7,141h84.5c33.5,0,57.7,23.5,57.7,55.9s-24.2,55.7-57.7,55.7h-20.1c-20.1,0-30.2,9.8-30.2,28.9v39.9h-34.3v-180.4ZM767.7,196.9c0-15.7-9.8-26.3-26.5-26.3h-47.2v91c2.3-25.8,12.4-38.7,30.2-38.7h17.8c16,0,25.8-10.6,25.8-26Z"/>
    <path class="cls-3" d="M969.2,170.6h-93.5v-29.6h150.2v29.6h-38.9c-12.6,0-19.1,10.6-19.1,31.2v119.6h-34.3v-119.6c0-18.6,11.9-28.9,35.6-31.2Z"/>
    <path class="cls-3" d="M1040.5,141h138.6v29.6h-104.4v47.4h94.8v26.3h-94.8v47.4h104.4v29.6h-138.6v-180.4Z"/>
    <path class="cls-3" d="M1276.9,326.3c-48.2,0-83-38.1-83-95.1s34.8-95.1,83-95.1,72.4,24.5,79.4,68.3h-34.3c-5.4-25-20.9-38.7-45.1-38.7s-48.7,27.8-48.7,65.5,20.6,65.5,48.7,65.5,40.5-16.5,45.1-38.9h34.3c-6.2,39.7-39.2,68.5-79.4,68.5Z"/>
    <path class="cls-3" d="M1413.6,141v102.8c2.1-23.2,11.1-31.2,31.2-31.2h22.9c19.3,0,25.3-5.4,25.3-21.9v-49.7h34.3v180.4h-34.3v-107.5c-2.3,20.9-11.3,28.3-30.9,28.3h-22.9c-19.3,0-25.5,5.4-25.5,22.2v57h-34.3v-180.4h34.3Z"/>
    <path class="cls-3" d="M1626.2,141h138.6v29.6h-104.4v47.4h94.8v26.3h-94.8v47.4h104.4v29.6h-138.6v-180.4Z"/>
    <path class="cls-3" d="M1946.4,141l-54.9,79.4c-19.1,32.7,10.1,66.7,58.5,66.7v34.3c-66.5,0-91.5-44.1-63.4-94.1l-64.9,94.1h-41.5l52.1-75.5c23.7-33.8-5.2-70.6-55.9-70.6v-34.3c67.3,0,92,45.1,62.4,95.6l66-95.6h41.7Z"/>
    <path class="cls-3" d="M1967.7,141h84.5c33.5,0,57.7,23.5,57.7,55.9s-24.2,55.7-57.7,55.7h-20.1c-20.1,0-30.2,9.8-30.2,28.9v39.9h-34.3v-180.4ZM2075.7,196.9c0-15.7-9.8-26.3-26.5-26.3h-47.2v91c2.3-25.8,12.4-38.7,30.2-38.7h17.8c16,0,25.8-10.6,25.8-26Z"/>
    <path class="cls-3" d="M2126.3,141h138.6v29.6h-104.4v47.4h94.8v26.3h-94.8v47.4h104.4v29.6h-138.6v-180.4Z"/>
    <path class="cls-3" d="M2291.2,141h88.4c33.5,0,57.7,23.5,57.7,55.9s-17,47.9-42.5,53.9l45.9,70.6h-40.2l-43.3-68.8h-1.5c-20.1,0-30.2,9.8-30.2,28.9v39.9h-34.3v-180.4ZM2403.1,196.9c0-15.7-9.8-26.3-26.5-26.3h-51v91c2.3-25.8,12.4-38.7,30.2-38.7h20.9c16.8,0,26.5-10.6,26.5-26Z"/>
    <path class="cls-3" d="M2540.6,170.6h-93.5v-29.6h150.2v29.6h-38.9c-12.6,0-19.1,10.6-19.1,31.2v119.6h-34.3v-119.6c0-18.6,11.9-28.9,35.6-31.2Z"/>
    <path class="cls-3" d="M2612.1,141h34.3v180.4h-34.3v-180.4Z"/>
    <path class="cls-3" d="M2742.6,136.1c43,0,67.3,27.6,67.3,58.5h-34.3c0-14.4-10.6-31.2-33-31.2s-33,11.9-33,25,20.6,21.4,38.1,25.5c36.6,8.5,67.3,22.2,67.3,59s-29.1,53.3-70.4,53.3-75.5-30.9-75.5-63.9h34.3c-.3,16,13.7,36.6,41.2,36.6s36.1-11.6,36.1-26.8-20.6-22.9-40.2-27.6c-42.8-10.1-65.2-24.7-65.2-56.7s28.9-51.8,67.3-51.8Z"/>
    <path class="cls-3" d="M2839.2,141h138.6v29.6h-104.4v47.4h94.8v26.3h-94.8v47.4h104.4v29.6h-138.6v-180.4Z"/>
  </g>
</svg>