<?xml version="1.0" encoding="UTF-8"?>
<svg id="Layer_1" data-name="Layer 1" xmlns="http://www.w3.org/2000/svg" version="1.1" viewBox="0 0 566.9 566.9">
  <defs>
    <style>
      .cls-1 {
        fill: #aa3c35;
      }

      .cls-1, .cls-2 {
        stroke-width: 0px;
      }

      .cls-2 {
        fill: #ff9d68;
      }
    </style>
  </defs>
  <polygon class="cls-2" points="366 64.6 149 314.3 282 314.3 208.4 530.8 443.5 254.1 328.2 253.4 366 64.6"/>
  <path class="cls-2" d="M366,64.6h0M366,64.6l-37.8,188.8,115.3.7-235.2,276.7,73.6-216.5h-133l216.9-249.8M366,48.6c-.3,0-.6,0-.9,0-3,.2-5.8,1.2-8.1,2.8-1,.7-1.9,1.4-2.7,2.3-.1.2-.3.3-.4.5l-216.9,249.7c-4.1,4.7-5.1,11.4-2.5,17.1,2.6,5.7,8.3,9.4,14.6,9.4h110.6l-66.4,195.3c-2.5,7.3.6,15.3,7.3,19.1,2.5,1.4,5.2,2.1,7.9,2.1,4.6,0,9.1-2,12.2-5.6l235.2-276.7c4-4.7,4.9-11.4,2.3-17-2.6-5.7-8.2-9.3-14.4-9.3l-95.9-.6,33.9-169.4c.3-1.1.4-2.3.4-3.6,0-8.4-6.5-15.3-14.7-16-.4,0-.8,0-1.3,0h0ZM366,80.6h0,0Z"/>
  <path class="cls-1" d="M338.4,120.7l-25.9,129.6-3.8,19h19.4c0,.1,81,.6,81,.6l-158.5,186.6,46.6-137,7.2-21.2h-120.2l154.3-177.6M366,64.6h0,0ZM366,64.6l-216.9,249.8h133l-73.6,216.5,235.2-276.7-115.3-.7,37.8-188.8h0Z"/>
</svg>