<?xml version="1.0" encoding="UTF-8"?>
<svg id="Layer_1" data-name="Layer 1" xmlns="http://www.w3.org/2000/svg" version="1.1" viewBox="0 0 566.9 566.9">
  <defs>
    <style>
      .cls-1 {
        fill: #ff0096;
      }

      .cls-1, .cls-2, .cls-3 {
        stroke-width: 0px;
      }

      .cls-2 {
        fill: #63bcc0;
      }

      .cls-3 {
        fill: #ffcbda;
      }
    </style>
  </defs>
  <g>
    <path class="cls-2" d="M261.4,108.7c0,0,.3,0,.5.1,0,0,0,0,0,0-.2,0-.3,0-.5-.1Z"/>
    <path class="cls-3" d="M217.4,538.7c-15.1,0-29.1-2-41.7-6-17.2-5.5-33.6-14-48.6-25.5-32.2-24.6-55.1-58.3-64.4-95-10-39.4-8.8-79,3.3-111.6,7.3-19.6,24.2-55.8,55.7-79,15.7-11.6,34.7-18.3,53.8-19.2,3.2-8.9,7.1-17.3,10.9-25.5l1.7-3.6c7.1-15.4,15.4-33.3,24.2-50.8,8.1-16,15.7-30.1,23.4-43l1.6-2.7c7.6-12.9,16.3-27.5,30.4-37.9,9.5-7,21.3-10.7,34.2-10.7s35.6,7.3,47,19.6c9.6,10.3,14.5,23.6,13.5,37.6-1.1,16.7-7.8,32.6-13.9,46,1.2-.9,2.4-1.9,3.6-2.8,9.1-7.1,16.6-13,24.8-18.9,10-7.2,22-14.9,37.8-14.9h1.3c19.8.6,38.3,13.5,47,33,7.3,16.3,6,33.2-3.7,50.1-8.5,14.8-20.4,27.3-32,38.7-4.9,4.8-10.2,9.7-15.9,14.7,3.6,6.5,5.5,13.7,5.5,21.2,0,6.8-1.5,13-3.6,18.6,9.5,6.5,16.6,15.4,20.4,25.9,8.7,23.9-.7,52.2-27.1,81.9-3.5,4-7.3,7.7-11.3,11.3-.6,6.4-1.8,12.6-3.8,18.6-9.6,30-31.9,50.3-51.6,68.2l-5.6,5.1c-3,2.8-6,5.7-9.1,8.5-10.7,10.2-21.8,20.7-34.8,29.3-15.2,10-33.5,16-56.1,18.1-5.8.5-11.6.8-17.2.8h0Z"/>
    <path class="cls-3" d="M459.6,177.8c9.8-16.9,11-33.7,3.7-50.1-8.7-19.5-27.2-32.5-47-33h-1.3c-15.8,0-27.8,7.7-37.8,14.9-8.2,5.9-15.8,11.8-24.8,18.9-1.2.9-2.4,1.9-3.6,2.8,6.1-13.3,12.8-29.3,13.9-46,.9-13.9-3.9-27.2-13.5-37.6-11.5-12.3-29-19.6-47-19.6s-24.7,3.7-34.2,10.7c-14.2,10.4-22.8,25-30.4,37.9l-1.6,2.7c-7.7,12.9-15.3,26.9-23.4,43-8.8,17.5-17.1,35.4-24.2,50.8l-1.7,3.6c-3.8,8.2-7.7,16.6-10.9,25.5-19.1.9-38.1,7.6-53.8,19.2-31.5,23.2-48.5,59.4-55.7,79-12.1,32.6-13.3,72.2-3.3,111.6,9.3,36.7,32.2,70.4,64.4,95,15,11.5,31.4,20,48.6,25.5,12.6,4,26.6,6,41.7,6h0c5.6,0,11.3-.3,17.2-.8,22.6-2.1,41-8,56.1-18.1,13-8.6,24.1-19.1,34.8-29.3,3-2.9,6-5.7,9.1-8.5l5.6-5.1c19.7-17.9,42-38.2,51.6-68.2,1.9-6,3.2-12.2,3.8-18.6,4-3.5,7.8-7.3,11.3-11.3,26.4-29.7,35.8-58,27.1-81.9-3.8-10.5-11-19.4-20.4-25.9,2.1-5.6,3.6-11.9,3.6-18.6,0-7.5-1.9-14.7-5.5-21.2,5.7-5,10.9-9.9,15.9-14.7,11.6-11.3,23.5-23.9,32-38.7ZM415,203.6c-9.2,9-18.9,17.6-28.9,25.8,7.6,5.2,13.1,13.1,13.1,23,0,9.6-4.8,18.8-10.6,27,12.6,3.1,24,11.3,28.5,23.7,8.1,22.4-9.4,47.8-23.7,63.8-4.6,5.2-9.9,10.1-15.5,14.5,0,7.4-1,14.8-3.3,21.8-9,28-31.5,46.5-52.3,65.6-13.4,12.3-26.4,26-41.6,36.1-14.3,9.5-31,13.6-47.9,15.2-17.2,1.6-35.2.8-51.7-4.4-15.6-4.9-30.1-12.7-43.1-22.6-27.7-21.1-49.2-51.1-57.9-85.1-8.3-32.5-9.1-69.2,2.7-100.9,9.9-26.5,26.6-53.9,49.5-70.7,16-11.7,36.5-17.7,56.2-15.3,3.5-13.9,9.8-26.9,15.9-40,7.8-16.9,15.6-33.7,24-50.3,7.1-14.2,14.7-28.2,22.8-41.9,7.5-12.7,15.2-26.5,27.3-35.4,23.6-17.4,68.3-1.7,66.1,30.7-1,15.2-8.1,30.6-14.4,44.2-5.9,12.8-12.8,25-20,37.1-7.5,12.5-15.3,25-22.6,37.7,5.8-4.6,11.6-9.2,17.4-13.8,19.4-15.6,38.8-31.3,58.5-46.7,8-6.3,16-12.5,24.3-18.4,8.4-6.1,17.3-11.8,28.1-11.5,13.7.4,25.6,10.2,31,22.3,5.3,11.8,3.5,22.8-2.9,33.7-7.5,13-18.3,24.3-29,34.8Z"/>
  </g>
  <path class="cls-1" d="M445.3,135.7c-5.5-12.4-17.4-21-29.5-21.3-10.2-.3-18.6,5.1-27,11.2-8.5,6.1-16.9,12.6-24.2,18.4-15.9,12.4-31.9,25.3-47.4,37.8l-11,8.9c-3.7,3-7.4,5.9-11.1,8.8l-13.4,10.7,4.5-7.9c4.5-7.8,9.2-15.6,13.8-23.1,3-4.9,5.9-9.7,8.8-14.6,6.4-10.7,13.7-23.4,20-37,6.2-13.4,13.2-28.6,14.2-43.6.8-12.5-5.8-23.6-18.1-30.3-14.8-8.1-33.4-7.7-45.3,1.1-10.9,8.1-18.2,20.3-25.2,32.1l-1.6,2.8c-7.4,12.5-14.9,26.2-22.7,41.8-8.7,17.2-16.9,35-23.9,50.2l-1.7,3.6c-5.4,11.6-10.9,23.6-14.1,36.1l-.4,1.5-1.5-.2c-2.8-.3-5.7-.5-8.6-.5-16.3,0-32.8,5.4-46.4,15.4-27.4,20.1-42.4,52.5-48.9,70-10.7,28.9-11.7,64.3-2.7,99.9,8.2,32.4,28.6,62.2,57.3,84.1,13.2,10.1,27.5,17.6,42.6,22.4,14.7,4.7,31.9,6.1,51.1,4.3,19.3-1.8,34.7-6.7,47.1-14.9,11.6-7.7,22-17.6,32.1-27.1,3.1-2.9,6.2-5.9,9.3-8.7,1.9-1.7,3.8-3.5,5.7-5.2,18.7-17.1,38.1-34.7,46.1-59.7,2.2-6.7,3.2-13.9,3.2-21.3v-.9s.7-.5.7-.5c5.5-4.3,10.7-9,15.3-14.2,14.9-16.7,31-41,23.3-62.1-4-11-14.2-19.5-27.3-22.7l-2.5-.6,1.5-2.1c7-9.9,10.3-18.2,10.3-26,0-8.5-4.4-16.1-12.3-21.5l-1.9-1.3,1.8-1.5c11-9.1,20.4-17.5,28.8-25.7,10.6-10.4,21.4-21.7,28.7-34.4,6.6-11.4,7.5-21.6,2.8-32.2ZM356.7,395c-4.9,18.7-19.2,33.5-29.5,42.9-4.8,4.4-9.6,8.8-14.4,13.3-9.2,8.5-18.7,17.3-28.1,25.8-12.5,11.3-23.8,17.7-36.5,21-9.5,2.4-19.1,3.6-28.6,3.6-20.8,0-41.1-5.7-59.2-16.8-27-16.5-48.2-42.5-58.2-71.2-10.5-30.2-11.7-65-3.3-93.3,3.1-10.4,7.3-19.7,14-31,6.7-11.4,14.4-23.2,25.1-32.7,9.3-8.3,19.1-13.2,31-15.7.9-.2,1.8-.3,2.7-.5.3,0,.8,0,1.3-.2.6,0,1.1-.1,1.3-.1,2.3-.2,4.6-.3,6.9-.2,1.3,0,2.5.1,3.8.2l2.6.2c.5,0,1,.2,1.6.3.9.2,2.7.4,2.7.4,0,0,0,0,0,0h0c.2,0,.3,0,.5,0l.6.2s2.1.9,2.7,1l.5.2c1.1.6,2.3,1.3,3.4,1.9,1.1.7,2.2,1.3,3.1,1.7l2.9,1.4c2.2,1,4.5,2.1,6.7,3.1,15.3,7.4,29.7,17.4,43.9,30.6,5.7,5.3,11.4,10.8,16.9,16.1l15.8,15.2c1,1,2.2,2,3.4,3,2.9,2.4,6.1,5.2,7.9,8.2,3.7,6.2-4,13.2-7.6,16.5-5.4,4.9-12.8,10.4-21.9,9.3-7.6-.9-14.9-4.2-22-7.4-2.1-.9-4.1-1.9-6.1-2.7l-27-11.4c-2.8-1.6-5.8-2.9-9.3-4.1-.2,0-.4,0-.5,0h-.2c0,0-21.6-9.2-21.6-9.2-5.8-2.5-9.9-2.7-13.5-.7-4.9,2.6-6,7.3-6.3,13.4-.3,6.8-.4,13.7-.6,20.4,0,3.4-.2,6.8-.2,10.2-.2,5.7,4,8.3,8.3,8.4,4.4.1,9.3-2.5,9.4-8.5,0-3.6.1-7.1.2-10.7,0-4.1.1-8.1.2-12.2v-2.7c0,0,3.5,1.7,3.5,1.7,1.2.6,2.2,1.1,3.1,1.5l19.5,8.2-.9,2.6c-.3.8-.5,1.4-.5,1.6-1.1,3.6-1.2,7.3-1.3,11.3,0,.8,0,1.5,0,2.3l-.2,5.1c-.1,3.4-.2,6.7-.4,10.1-.3,9.4-2.4,16.2-6.9,22.7-4.4,6.3-10.2,11.5-15.8,16.6l-1.4,1.3c-1.5,1.4-2.4,3.4-2.5,5.8,0,2.5.9,5.1,2.5,6.7,3.4,3.4,8.8,3.4,12.6,0,7.7-7,15.8-14.6,21.5-23.8,5.9-9.5,7.4-19.9,7.8-32.6l.2-5.9c.1-3.9.3-7.9.4-11.8,0-.6,0-.8,0-1v-.8c-.1,0,.4-.6.4-.6,0,0,0,0,0-.2l.8-2.2,10.2,4.3c1.5.6,3,1.3,4.5,1.9,18.1,7.8,36.8,15.8,55.2,4.5.9-.6,1.8-1.2,2.8-1.8l3.7-2.6-1.1,4.4c-2.2,8.8-1.5,15.9,2.1,22.4,8.4,15.2,27.9,16.4,43.4,12.5,3-.8,6.2-1.8,10-3.4l3.2-1.3-.9,3.3ZM292.1,291.3l.9-1.2c13.8-18.6,38.3-40.9,49.4-45.1l.7-.2c4.7-1.8,19.1-7.3,30.1.2,7.3,5,4.9,14.4.3,21.7-9.4,14.6-22.1,27.1-33.2,37.4-3,2.7-6.1,5.3-9.2,7.8-3.6,2.9-7.3,6-10.6,9.2l-2,1.9-.8-2.7c-.6-1.9-1.3-3.5-2.1-4.9-3.7-6.3-9.7-11.7-15.6-16.9-2.2-2-4.3-3.8-6.2-5.7l-1.6-1.6ZM393.4,302.6c4.2,3.4,6.3,7.9,6.2,12.9-.3,9.4-5.5,17.9-11.3,26.5-4.8,7.2-10.6,13.8-17.3,19.8-8.6,7.7-24.1,19.3-39.1,19.3s-4.6-.3-6.9-.9c-4.8-1.3-11.4-6.9-10.7-13.6.5-5.5,3.6-14.5,8.6-21.3,6-8.2,13.1-14.4,20-20.2,10.2-8.5,19.6-17.5,27.9-26.7l.4-.5h1.1c.2-.2.3-.2.5-.2,6.8-1.6,15.1.3,20.6,4.8ZM430.5,155c-2.4,8.5-13.4,19.2-23.1,28.7-1.5,1.5-3,2.9-4.3,4.2h0c-11.5,11.5-24.5,22.9-40.9,35.9l-.5.4h-.6c-7.4-.3-13.2.3-18.3,1.9-10.3,3.3-17.6,9-26,15.6l-.8.7c-4.4,3.4-9,7.7-13.4,11.8-2.5,2.3-5,4.6-7.4,6.8-5.3,4.6-10.1,10-14.8,16.4l-1.2,1.6-2.9-2.8c-2.1-2-4.2-4-6.3-6-16.3-15.2-31.2-25.9-46.9-33.7-4.5-2.2-9.2-4.4-13.7-6.5l-2.8-1.3.3-1.3c2.2-10.1,6.6-19.6,10.9-28.8.7-1.6,1.5-3.1,2.2-4.7,5.5-12,12-26,18.6-39.6,7.3-15,14-28,20.5-39.8l1.4-2.5c6.2-11.3,12.7-22.9,20.4-33.3,5.5-7.4,13.6-15.4,27.8-11.7,4.3,1.1,10.1,3.6,13.3,7.2,5.1,5.7,3.4,12.8,2,18.4-5.4,22-16.3,39.9-27.8,58.9-1.5,2.5-3.1,5.1-4.6,7.6-1.7,2.9-3.4,5.7-5.2,8.6-13.4,22.2-27.2,45.1-36.8,69.7-1.4,3.7.8,7.1,3.1,9,2.6,2.1,6.7,3.1,9.8.9,23.3-16.4,45.8-34.9,67.6-52.8,9.9-8.1,20.1-16.5,30.2-24.5,2.5-2,4.9-3.9,7.3-5.9,11.7-9.4,21.8-17.5,34.7-26.2l.6-.4c3.1-2.1,6.2-4.3,10.2-4.9,3.7-.6,7.8.9,10.8,3.9l.4.4c3.3,3.2,8.8,8.5,5.9,18.6Z"/>
</svg>