<?xml version="1.0" encoding="UTF-8"?>
<svg id="Layer_1" data-name="Layer 1" xmlns="http://www.w3.org/2000/svg" xmlns:xlink="http://www.w3.org/1999/xlink" version="1.1" viewBox="0 0 2052 688.6">
  <defs>
    <style>
      .cls-1 {
        clip-path: url(#clippath);
      }

      .cls-2 {
        fill: none;
      }

      .cls-2, .cls-3, .cls-4 {
        stroke-width: 0px;
      }

      .cls-3 {
        fill: #000;
      }

      .cls-4 {
        fill: #ff9d68;
      }
    </style>
    <clipPath id="clippath">
      <rect class="cls-2" x="1705.7" y="127" width="259.6" height="136.1"/>
    </clipPath>
  </defs>
  <g>
    <path class="cls-4" d="M62.1,28.5h1927.7c18.6,0,33.6,15.1,33.6,33.6v564.3c0,18.6-15.1,33.6-33.6,33.6H62.1c-18.6,0-33.6-15.1-33.6-33.6V62.1c0-18.6,15.1-33.6,33.6-33.6Z"/>
    <path class="cls-3" d="M1989.9,38c13.3,0,24.1,10.8,24.1,24.1v564.3c0,13.3-10.8,24.1-24.1,24.1H62.1c-13.3,0-24.1-10.8-24.1-24.1V62.1c0-13.3,10.8-24.1,24.1-24.1h1927.7M1989.9,19H62.1c-23.8,0-43.1,19.3-43.1,43.1v564.3c0,23.8,19.3,43.1,43.1,43.1h1927.7c23.8,0,43.1-19.3,43.1-43.1V62.1c0-23.8-19.3-43.1-43.1-43.1h0Z"/>
    <path class="cls-4" d="M1989.9,19c23.8,0,43.1,19.3,43.1,43.1v564.3c0,23.8-19.3,43.1-43.1,43.1H62.1c-23.8,0-43.1-19.3-43.1-43.1V62.1c0-23.8,19.3-43.1,43.1-43.1h1927.7M1989.9,0H62.1C27.9,0,0,27.9,0,62.1v564.3c0,34.3,27.9,62.1,62.1,62.1h1927.7c34.3,0,62.1-27.9,62.1-62.1V62.1C2052,27.9,2024.1,0,1989.9,0h0Z"/>
  </g>
  <g class="cls-1">
    <path class="cls-3" d="M1807.1,154.9c1.1-2.2,3.9-5.1,9.2-5.7,5.3-.6,6.4,2.7,6,4.1-.3,1.4-9.1,21.7-10.3,24.6-1.2,3-5.3,2.5-6.5.9-1-1.3-3.2-3.9-4-5.2-.8-1.3-.9-2.3-.2-4.1,0,0,4.6-12.4,5.7-14.6ZM1961,192.9c-24.6,1.1-49,3.9-73.2,8.4-13.6,24-34.7,39.5-49,38.9-13.1-.5-17.8-10.3-18.2-22.3-16.5,5.2-26.4,9.3-27.6,9.8-3,1.3-4.4.4-5.7-.9-.2-.2-4.4-5.7-4.5-5.9-.6-.9-1.2-1.8-.4-4,1.3-3.6,7.1-17.8,7.1-17.8-5.5.5-10.9,1.3-16.2,2.3-7.9,19.9-18.9,47.7-19.6,49.5-1.2,3.2-5.4,3.3-7.1.9-.6-.8-4.7-6.3-5.3-7.1-.8-1.1-1-2.1-.5-3.8.5-1.7,7.3-18.9,13.5-34.8-7.1,2.1-13.9,4.5-20,7-4.4,11.2-9.7,24-10.4,25.6-1.2,2.7-4.8,3.3-6.8.8-.3-.4-3-3.9-3.3-4.3-1.3-1.7-1.4-2.6-.9-4.2.3-.8,1.9-4.8,3.9-9.8-.6.3-1.1.6-1.6.9-3.8,1.5-7.9-3.8-8.9-5.1-.5-.6-.7-1.4-.6-2.2,0-.8.5-1.5,1-2,.5-.5,6.8-5,17.5-10.2.7-1.8,1.3-3.5,1.8-4.8,6.1-16.5,14.1-36,15.2-38.5,1.1-2.5,3.3-5.2,9-5.9,5.7-.6,5.9,2.6,5.4,4.2-.4,1.4-9.8,24.7-14.8,37.9,6.5-2.4,13.1-4.3,19.9-5.9.7-1.8,1.3-3.4,1.9-4.9,7.6-19.8,16.7-42.8,18-45.2,1.3-2.4,4.1-4.9,10.1-5.6,6-.7,7.4,2.3,7.1,3.8-.3,1.5-9.4,25.4-16.8,44.1-.3.6-.9,2.2-1.8,4.5,4.3-.5,8.7-.9,13.3-1,.8,0,1.6,0,2.4.3,2.1.8,7.3,2.7,9.5,3.5,1.7.6,2.8,2.5,2,4.6-.8,2.1-6.4,16.2-6.4,16.2,0,0,7.8-3,21.8-6.9,1.6-8.7,4.4-17.1,7.1-23,21.9-48.2,44.3-52.8,52.5-52.9,18.8-.2,26.1,27.8,12.7,61.3,19.4-2.6,38.9-4.1,58.5-4.7.7.1.8.5.8.7,0,.3,0,1.6-1.1,1.6-20.7.8-28.9,2.5-29.9,2.7-1.5.4-1.3,2.1,1.1,1.8,12.2-1.4,24.4-2.1,36.6-2.2.3,0,2.5-.1,4,1.5.7.7,3.1,2.9-1.9,3.2-.4,0-.8,0-1.1,0,0,0,0,0-.1,0h0ZM1866.4,205.7c-11.7,2.6-22.3,5.4-31.5,8,0,7,2.5,11,7.7,11,6.6,0,15.3-6.5,23.8-19ZM1876.4,143.3c-12.3.4-26.8,22.6-35.2,44.4-1.5,3.9-2.8,7.6-3.8,11,10.5-2.6,23.1-5.2,37.3-7.6,1.6-3.2,3.1-6.6,4.6-10.3,8.7-21.2,7.5-37.9-2.9-37.5Z"/>
  </g>
  <g>
    <path class="cls-3" d="M223.2,126.7c43,0,67.3,27.6,67.3,58.5h-34.3c0-14.4-10.6-31.2-33-31.2s-33,11.9-33,25,20.6,21.4,38.1,25.5c36.6,8.5,67.3,22.2,67.3,59s-29.1,53.3-70.4,53.3-75.5-30.9-75.5-63.9h34.3c-.3,16,13.7,36.6,41.2,36.6s36.1-11.6,36.1-26.8-20.6-22.9-40.2-27.6c-42.8-10.1-65.2-24.7-65.2-56.7s28.9-51.8,67.3-51.8Z"/>
    <path class="cls-3" d="M320.4,131.6h34.3v180.4h-34.3v-180.4Z"/>
    <path class="cls-3" d="M523.3,131.6v29.6s-15.2,17.5-61.8,71.9c-27.8,33.5-47.7,47.2-75.2,49.2h139.7v29.6h-152v-29.6c.8,0,16-17.5,62.9-72.7,27.3-33,46.9-46.4,74.2-48.4h-129.1v-29.6h141.5Z"/>
    <path class="cls-3" d="M686.5,131.6v29.6s-15.2,17.5-61.8,71.9c-27.8,33.5-47.7,47.2-75.2,49.2h139.7v29.6h-152v-29.6c.8,0,16-17.5,62.9-72.7,27.3-33,46.9-46.4,74.2-48.4h-129.1v-29.6h141.5Z"/>
    <path class="cls-3" d="M744,131.6v150.8h86.3v29.6h-120.6v-180.4h34.3Z"/>
    <path class="cls-3" d="M845,131.6h34.3v180.4h-34.3v-180.4Z"/>
    <path class="cls-3" d="M962.7,131.6l62.6,149.7v-149.7h34.3v180.4h-50.8l-63.1-150.2v150.2h-34.3v-180.4h51.3Z"/>
    <path class="cls-3" d="M1247.6,214.1v97.9h-27.6v-64.7c-3.6,43.6-25.5,69.6-59,69.6s-77.1-40.7-77.1-95.1,34.8-95.1,83-95.1,71.6,23.7,78.6,66.5h-33.8c-5.4-24-20.9-36.9-44.8-36.9s-48.7,27.8-48.7,65.5,21.4,65.5,50.5,65.5,48.7-19.8,51.3-47.2v-1.5h-53.6v-24.5h81.2Z"/>
    <path class="cls-3" d="M233.8,561.9c-48.2,0-83-38.1-83-95.1s34.8-95.1,83-95.1,72.4,24.5,79.4,68.3h-34.3c-5.4-25-20.9-38.7-45.1-38.7s-48.7,27.8-48.7,65.5,20.6,65.5,48.7,65.5,40.5-16.5,45.1-38.9h34.3c-6.2,39.7-39.2,68.5-79.4,68.5Z"/>
    <path class="cls-3" d="M336.3,376.6h88.4c33.5,0,57.7,23.5,57.7,55.9s-17,47.9-42.5,53.9l45.9,70.6h-40.2l-43.3-68.8h-1.5c-20.1,0-30.2,9.8-30.2,28.9v39.9h-34.3v-180.4ZM448.1,432.5c0-15.7-9.8-26.3-26.5-26.3h-51v91c2.3-25.8,12.4-38.7,30.2-38.7h20.9c16.8,0,26.5-10.6,26.5-26Z"/>
    <path class="cls-3" d="M506.8,376.6h138.6v29.6h-104.4v47.4h94.8v26.3h-94.8v47.4h104.4v29.6h-138.6v-180.4Z"/>
    <path class="cls-3" d="M769.7,376.6l55.4,180.4h-35.8l-13.1-44.1h-70.1l-13.1,44.1h-35.8l55.4-180.4h57.2ZM767.4,483.3l-26.3-87.6-26.3,87.6h52.6Z"/>
    <path class="cls-3" d="M902.3,406.3h-93.5v-29.6h150.2v29.6h-38.9c-12.6,0-19.1,10.6-19.1,31.2v119.6h-34.3v-119.6c0-18.6,11.9-28.9,35.6-31.2Z"/>
    <path class="cls-3" d="M973.8,376.6h34.3v180.4h-34.3v-180.4Z"/>
    <path class="cls-3" d="M1058.4,376.6l46.6,162.6,45.9-162.6h35.8l-52.8,180.4h-57.5l-53.9-180.4h35.8Z"/>
    <path class="cls-3" d="M1201.6,376.6h34.3v180.4h-34.3v-180.4Z"/>
    <path class="cls-3" d="M1343.8,406.3h-93.5v-29.6h150.2v29.6h-38.9c-12.6,0-19.1,10.6-19.1,31.2v119.6h-34.3v-119.6c0-18.6,11.9-28.9,35.6-31.2Z"/>
    <path class="cls-3" d="M1448.2,376.6l45.4,76.5,45.4-76.5h39.9l-68.3,109.3v71.1h-34.3v-71.6l-68.3-108.8h40.2Z"/>
  </g>
</svg>