<?xml version="1.0" encoding="UTF-8"?>
<svg id="Layer_1" data-name="Layer 1" xmlns="http://www.w3.org/2000/svg" version="1.1" viewBox="0 0 566.9 566.9">
  <defs>
    <style>
      .cls-1 {
        fill: #005d72;
      }

      .cls-1, .cls-2 {
        stroke-width: 0px;
      }

      .cls-2 {
        fill: #00dece;
      }
    </style>
  </defs>
  <path class="cls-2" d="M287.1,533.2c-10.1,0-19.7-4.7-25.8-12.5l-4.9-6.4v-.3c-11.1-15-41.6-55.8-73.5-98.7-31.1-41.7-65.8-88.3-92.8-124.5-30.4-40.9-42.2-56.7-46.9-64.1l-.3.2c-8.2-13.2-5.7-31,5.9-41.4l66-62.2c3.4-3.1,7.1-5.4,11.1-6.9,0,0,75-27.3,77.6-28.3h0c3.6-1.3,7.3-2,11.2-2h146.9c3.8,0,7.6.7,11.2,2l77.5,28.3c4.2,1.6,8,3.9,11.2,6.9l66.1,62.8c12,11.1,13.6,30.3,3.5,43.5l-1.6,2.1h0c-7.2,9.5-40.4,53.9-75.3,100.7-31.4,42-66.7,89.3-94.3,126.1-32.9,43.8-44.9,59.9-51.2,66.3l.3.3c-5.9,5.3-13.6,8.2-21.6,8.2h0Z"/>
  <path class="cls-1" d="M280.1,506.2c3,3.9,9.2,4.5,12.8,1.2,1.4-.5,218-291.3,219.3-292.3,2.7-3.5,2.3-8.9-1-11.9l-65.9-62.6c-.9-.8-1.9-1.5-3.1-1.9l-77.4-28.2c-1-.4-2-.5-3.1-.5h-146.9c-1,0-2.1.2-3.1.5,0,0-77.4,28.2-77.5,28.2-1.1.4-2.2,1.1-3.1,1.9l-66.4,62.5c-3.1,2.8-3.8,7.7-1.6,11.3.1.9,216.7,291,217.1,291.9h0Z"/>
  <g>
    <polygon class="cls-2" points="287.1 478.3 193.5 265.7 382.1 265.7 287.1 478.3"/>
    <polygon class="cls-2" points="193.3 247.7 220.6 184.2 355.6 184.2 382.4 247.7 193.3 247.7"/>
    <polygon class="cls-2" points="328 430.8 402.7 263.6 477.5 231.3 328 430.8"/>
    <polygon class="cls-2" points="488.9 206.8 400.7 244.9 373.5 180.5 436.9 157.4 488.9 206.8 488.9 206.8"/>
    <polygon class="cls-2" points="216.3 127.7 360 127.7 412.8 147 360 166.3 216.2 166.3 163.4 147 216.3 127.7"/>
    <polygon class="cls-2" points="139.3 157.4 202.6 180.4 175 244.9 86.8 206.8 139.3 157.3 139.3 157.4"/>
    <polygon class="cls-2" points="97.9 231.2 172.9 263.6 246.7 431.2 97.9 231.2"/>
  </g>
</svg>