<?xml version="1.0" encoding="UTF-8"?><svg id="Layer_1" xmlns="http://www.w3.org/2000/svg" viewBox="0 0 170.85 249.64"><defs><style>.cls-1,.cls-2,.cls-3{stroke:#005d72;stroke-linecap:round;stroke-linejoin:round;stroke-width:7px;}.cls-1,.cls-4{fill:#00dece;}.cls-2{fill:#ff9d68;}.cls-5{fill:#005d72;}.cls-3{fill:none;}</style></defs><path class="cls-4" d="M86.56,246.37c-10.78,0-19.05-4.9-22.29-12.99-1.91-.68-3.67-1.4-5.12-2.1-5.3-2.44-8.86-7.56-9.3-13.39-1.05-13.76-3.6-20.51-4.68-21.62-7.29-7.29-7.67-18.2-7.18-24.41-.27-1.99-.94-4.74-1.71-7.89-1.66-6.82-3.73-15.3-3.66-24.09-.07-1.38-3.44-5.42-5.89-8.36-7.75-9.3-19.46-23.35-19.46-48.2-.54-28.15,12.02-51.24,35.35-64.91,13.05-7.64,28.62-11.68,45.04-11.68s32.02,4.04,45.08,11.7c23.34,13.68,35.89,36.78,35.34,65.06,0,24.68-11.71,38.73-19.46,48.03-2.47,2.96-5.84,7.01-5.89,8.43,0,10.26-3.27,23.5-5.31,30.76-.07.85-.05,2.05-.04,3.22.07,5.73.17,14.39-6.97,22.11l-.21.21c-1.1,1.14-3.66,7.89-4.7,21.65-.45,5.88-4.06,11.03-9.44,13.45-1.69.76-3.43,1.46-5.19,2.1-3.26,8.04-11.52,12.93-22.26,12.93h-2.05Z"/><path class="cls-4" d="M87.67,11.73c15.01,0,30.02,3.67,42.55,11.01,21.71,12.72,33.38,34.26,32.87,60.65,0,22.97-10.58,35.66-18.3,44.93-3.94,4.73-7.05,8.46-7.05,11.63,0,10.18-3.6,24.06-5.24,29.83-.14,1.18-.13,2.66-.11,4.22.06,5.23.15,12.39-5.64,18.65-.03.03-.07.07-.1.1-2.83,2.83-5.18,12.33-6.13,24.78-.31,4.05-2.8,7.6-6.5,9.26-2.01.9-4.41,1.86-7.12,2.74-1.9,7.73-9.22,11.85-18.29,11.85h-2.05c-9.09,0-16.44-4.14-18.31-11.92-2.95-.94-5.38-1.92-6.97-2.69-3.67-1.68-6.14-5.21-6.45-9.24-.95-12.45-3.29-21.95-6.13-24.78-6.23-6.23-6.1-16.46-5.69-20.97-.26-2.34-1.01-5.44-1.88-8.99-1.59-6.54-3.58-14.69-3.52-22.86,0-3.14-3.11-6.87-7.05-11.6-7.72-9.27-18.3-21.96-18.3-45-.5-26.34,11.18-47.88,32.88-60.59,12.52-7.33,27.51-11,42.51-11M87.67,1.73c-17.31,0-33.75,4.28-47.57,12.37-12.4,7.26-21.99,17.03-28.5,29.05-6.45,11.9-9.59,25.45-9.32,40.27.03,26.6,12.42,41.46,20.62,51.3,1.7,2.04,3.97,4.76,4.74,6.12.08,9.04,2.14,17.48,3.8,24.3.64,2.64,1.26,5.16,1.54,6.9-1.06,15.02,4.56,23.49,8.32,27.41.74,1.39,2.68,7.12,3.57,18.82.58,7.62,5.23,14.32,12.15,17.53,1.07.51,2.28,1.04,3.59,1.55,4.53,8.67,14.14,14.02,25.95,14.02h2.05c11.78,0,21.38-5.32,25.92-13.96,1.21-.47,2.41-.98,3.59-1.5,7.05-3.17,11.79-9.92,12.38-17.63.89-11.74,2.84-17.47,3.58-18.84,0,0,0,0,.01-.01,3.76-4.06,6.27-8.91,7.45-14.4.93-4.33.88-8.28.85-11.17,0-.74-.02-1.69,0-2.34,2.05-7.4,5.16-20.22,5.34-30.67.76-1.35,3.04-4.09,4.74-6.14,8.2-9.84,20.59-24.7,20.62-51.23.27-14.85-2.86-28.41-9.31-40.31-6.51-12.02-16.1-21.79-28.5-29.06C121.45,6.01,104.99,1.73,87.67,1.73h0Z"/><path class="cls-1" d="M88.68,227.01c10.04,0,18.91-3.21,23.83-5.42,2.47-1.11,4.12-3.47,4.33-6.17.55-7.3,2.27-22.19,7.2-27.12,6.53-7.05,4.02-15.5,4.83-21.1,1.29-4.54,5.17-18.98,5.17-29.07,0-12.11,25.36-22.08,25.36-56.63,1.74-90.58-145.13-90.66-143.41,0,0,34.55,25.36,44.51,25.36,56.62-.09,12.28,4.76,24.68,5.42,31.82-.36,3.48-.76,13.01,4.58,18.36,4.93,4.93,6.64,19.82,7.2,27.12.2,2.7,1.86,5.06,4.33,6.17,4.99,2.43,15.96,5.87,25.82,5.42Z"/><path class="cls-2" d="M46.88,168.66s19.42,3.87,39.93,3.87h1.76c20.51,0,39.93-3.87,39.93-3.87"/><line class="cls-2" x1="57.31" y1="202.15" x2="121.31" y2="192.29"/><path class="cls-5" d="M107.4,223.61c0,10.38-8.22,15.95-18.78,15.95h-2.05c-10.56,0-18.78-5.57-18.78-15.95"/><path class="cls-3" d="M71.34,168.66l-10.98-53.15c-1.41-6.83,2.35-13.75,8.93-16.07,4.28-1.51,10.27-2.61,18.62-2.61"/><path class="cls-3" d="M103.84,168.66l10.98-53.15c1.41-6.83-2.35-13.75-8.93-16.07-4.28-1.51-10.27-2.61-18.62-2.61"/><path class="cls-4" d="M84.31,246.37c-10.78,0-19.05-4.9-22.29-12.99-1.91-.68-3.67-1.4-5.12-2.1-5.3-2.44-8.86-7.56-9.3-13.39-1.05-13.76-3.6-20.51-4.68-21.62-7.29-7.29-7.67-18.2-7.18-24.41-.27-1.99-.94-4.74-1.71-7.89-1.66-6.82-3.73-15.3-3.66-24.09-.07-1.38-3.44-5.42-5.89-8.36-7.75-9.3-19.46-23.35-19.46-48.2-.54-28.15,12.02-51.24,35.35-64.91,13.05-7.64,28.62-11.68,45.04-11.68s32.02,4.04,45.08,11.7c23.34,13.68,35.89,36.78,35.34,65.06,0,24.68-11.71,38.73-19.46,48.03-2.47,2.96-5.84,7.01-5.89,8.43,0,10.26-3.27,23.5-5.31,30.76-.07.85-.05,2.05-.04,3.22.07,5.73.17,14.39-6.97,22.11l-.21.21c-1.1,1.14-3.66,7.89-4.7,21.65-.45,5.88-4.06,11.03-9.44,13.45-1.69.76-3.43,1.46-5.19,2.1-3.26,8.04-11.52,12.93-22.26,12.93h-2.05Z"/><path class="cls-4" d="M85.41,11.73c15.01,0,30.02,3.67,42.55,11.01,21.71,12.72,33.38,34.26,32.87,60.65,0,22.97-10.58,35.66-18.3,44.93-3.94,4.73-7.05,8.46-7.05,11.63,0,10.18-3.6,24.06-5.24,29.83-.14,1.18-.13,2.66-.11,4.22.06,5.23.15,12.39-5.64,18.65-.03.03-.07.07-.1.1-2.83,2.83-5.18,12.33-6.13,24.78-.31,4.05-2.8,7.6-6.5,9.26-2.01.9-4.41,1.86-7.12,2.74-1.9,7.73-9.22,11.85-18.29,11.85h-2.05c-9.09,0-16.44-4.14-18.31-11.92-2.95-.94-5.38-1.92-6.97-2.69-3.67-1.68-6.14-5.21-6.45-9.24-.95-12.45-3.29-21.95-6.13-24.78-6.23-6.23-6.1-16.46-5.69-20.97-.26-2.34-1.01-5.44-1.88-8.99-1.59-6.54-3.58-14.69-3.52-22.86,0-3.14-3.11-6.87-7.05-11.6-7.72-9.27-18.3-21.96-18.3-45-.5-26.34,11.18-47.88,32.88-60.59,12.52-7.33,27.51-11,42.51-11M85.41,1.73c-17.31,0-33.75,4.28-47.57,12.37-12.4,7.26-21.99,17.03-28.5,29.05C2.88,55.05-.25,68.59.02,83.42c.03,26.6,12.42,41.46,20.62,51.3,1.7,2.04,3.97,4.76,4.74,6.12.08,9.04,2.14,17.48,3.8,24.3.64,2.64,1.26,5.16,1.54,6.9-1.06,15.02,4.56,23.49,8.32,27.41.74,1.39,2.68,7.12,3.57,18.82.58,7.62,5.23,14.32,12.15,17.53,1.07.51,2.28,1.04,3.59,1.55,4.53,8.67,14.14,14.02,25.95,14.02h2.05c11.78,0,21.38-5.32,25.92-13.96,1.21-.47,2.41-.98,3.59-1.5,7.05-3.17,11.79-9.92,12.38-17.63.89-11.74,2.84-17.47,3.58-18.84,0,0,0,0,.01-.01,3.76-4.06,6.27-8.91,7.45-14.4.93-4.33.88-8.28.85-11.17,0-.74-.02-1.69,0-2.34,2.05-7.4,5.16-20.22,5.34-30.67.76-1.35,3.04-4.09,4.74-6.14,8.2-9.84,20.59-24.7,20.62-51.23.27-14.85-2.86-28.41-9.31-40.31-6.51-12.02-16.1-21.79-28.5-29.06C119.19,6.01,102.73,1.73,85.41,1.73h0Z"/><path class="cls-1" d="M86.42,227.01c10.04,0,18.91-3.21,23.83-5.42,2.47-1.11,4.12-3.47,4.33-6.17.55-7.3,2.27-22.19,7.2-27.12,6.53-7.05,4.02-15.5,4.83-21.1,1.29-4.54,5.17-18.98,5.17-29.07,0-12.11,25.36-22.08,25.36-56.63,1.74-90.58-145.13-90.66-143.41,0,0,34.55,25.36,44.51,25.36,56.62-.09,12.28,4.76,24.68,5.42,31.82-.36,3.48-.76,13.01,4.58,18.36,4.93,4.93,6.64,19.82,7.2,27.12.2,2.7,1.86,5.06,4.33,6.17,4.99,2.43,15.96,5.87,25.82,5.42Z"/><path class="cls-2" d="M44.62,168.66s19.42,3.87,39.93,3.87h1.76c20.51,0,39.93-3.87,39.93-3.87"/><line class="cls-2" x1="55.05" y1="202.15" x2="119.05" y2="192.29"/><path class="cls-5" d="M105.14,223.61c0,10.38-8.22,15.95-18.78,15.95h-2.05c-10.56,0-18.78-5.57-18.78-15.95"/><path class="cls-3" d="M69.08,168.66l-10.98-53.15c-1.41-6.83,2.35-13.75,8.93-16.07,4.28-1.51,10.27-2.61,18.62-2.61"/><path class="cls-3" d="M101.58,168.66l10.98-53.15c1.41-6.83-2.35-13.75-8.93-16.07-4.28-1.51-10.27-2.61-18.62-2.61"/></svg>