<?xml version="1.0" encoding="UTF-8"?>
<svg id="Layer_1" data-name="Layer 1" xmlns="http://www.w3.org/2000/svg" xmlns:xlink="http://www.w3.org/1999/xlink" version="1.1" viewBox="0 0 515 270">
  <defs>
    <style>
      .cls-1 {
        clip-path: url(#clippath);
      }

      .cls-2 {
        fill: none;
      }

      .cls-2, .cls-3 {
        stroke-width: 0px;
      }

      .cls-3 {
        fill: #ff0096;
      }
    </style>
    <clipPath id="clippath">
      <rect class="cls-2" width="515" height="270"/>
    </clipPath>
  </defs>
  <g class="cls-1">
    <path class="cls-3" d="M201.1,55.4c2.2-4.3,7.7-10.2,18.3-11.4,10.6-1.2,12.6,5.3,12,8.1-.7,2.8-18.1,43-20.3,48.9-2.3,6-10.5,4.9-12.9,1.8-2-2.5-6.3-7.7-7.9-10.3-1.6-2.6-1.8-4.5-.4-8.1,0,0,9.2-24.6,11.4-28.9ZM506.4,130.9c-48.7,2.2-97.3,7.8-145.2,16.6-27,47.5-68.9,78.3-97.3,77.2-25.9-1-35.2-20.4-36.1-44.2-32.8,10.4-52.4,18.5-54.8,19.5-5.9,2.5-8.8.8-11.2-1.9-.4-.5-8.6-11.3-9-11.8-1.1-1.7-2.4-3.5-.8-7.9,2.6-7.2,14-35.4,14-35.4-10.9,1-21.6,2.5-32,4.5-15.6,39.5-37.4,94.7-38.8,98.2-2.5,6.3-10.7,6.6-14.1,1.8-1.1-1.6-9.4-12.5-10.6-14.1-1.5-2.1-2-4.1-1-7.6.9-3.3,14.4-37.5,26.9-69.1-14.1,4.2-27.5,8.9-39.7,13.9-8.8,22.2-19.3,47.7-20.7,50.8-2.3,5.4-9.5,6.6-13.5,1.6-.6-.8-6-7.7-6.5-8.4-2.6-3.4-2.9-5.3-1.7-8.4.6-1.6,3.8-9.5,7.8-19.5-1.1.6-2.2,1.1-3.2,1.7-7.5,3.1-15.6-7.4-17.7-10.1-.9-1.3-1.3-2.8-1.2-4.4.2-1.5.9-3,2.1-4,1.1-1,13.5-9.9,34.6-20.2,1.4-3.6,2.7-6.9,3.6-9.6,12.1-32.8,28-71.3,30.3-76.3,2.3-5,6.6-10.4,17.8-11.7,11.3-1.3,11.7,5.1,10.8,8.3-.8,2.8-19.4,49-29.3,75.2,12.9-4.7,26.1-8.6,39.4-11.7,1.4-3.6,2.6-6.8,3.7-9.7,15.1-39.3,33.1-84.9,35.6-89.6,2.5-4.7,8.1-9.7,20-11,11.9-1.3,14.7,4.5,14.1,7.5-.6,3-18.6,50.3-33.4,87.4-.5,1.2-1.8,4.4-3.6,9,8.5-1,17.3-1.7,26.3-2,1.6-.1,3.2,0,4.8.5,4.1,1.5,14.6,5.4,18.8,6.9,3.4,1.2,5.5,5,3.9,9.1-1.6,4.1-12.7,32.2-12.7,32.2,0,0,15.4-5.9,43.3-13.7,3.2-17.2,8.7-33.8,14-45.6C287.9,9.4,332.4.1,348.5,0c37.3-.3,51.9,55.2,25.2,121.5,38.5-5.1,77.2-8.2,116-9.3,1.4.3,1.5,1,1.6,1.4.2.6,0,3.1-2.1,3.2-41.1,1.5-57.3,4.9-59.4,5.4-2.9.7-2.5,4.1,2.2,3.5,24.1-2.8,48.4-4.3,72.7-4.3.7,0,4.9-.2,8,2.9,1.3,1.3,6.1,5.7-3.7,6.4-.7,0-1.5,0-2.2,0,0,0-.2,0-.3,0h0ZM318.7,156.2c-23.2,5.2-44.2,10.6-62.5,15.9,0,13.8,4.9,21.8,15.3,21.9,13.1.2,30.3-12.8,47.2-37.8ZM338.5,32.5c-24.4.8-53.1,44.9-69.9,88.1-3,7.8-5.5,15.1-7.4,21.9,20.9-5.1,45.8-10.4,74-15.2,3.1-6.4,6.2-13.1,9.1-20.4,17.2-42.1,14.9-75.2-5.8-74.5Z"/>
  </g>
</svg>